<svg width="444" height="486" viewBox="0 0 444 486" fill="none" xmlns="http://www.w3.org/2000/svg">
<g id="blackberry-qr-code-variant">
<g id="Group">
<path id="Vector" d="M105.724 254.591H126.887V277.756H148.035V300.905H42.3104V277.756H63.4582V231.442H105.769V254.591H105.724ZM380.601 462.867H401.719V439.718H380.601V462.867ZM126.872 254.591H148.02V231.442H126.872V254.591ZM422.837 462.867H444V439.718H422.837V462.867ZM169.182 486H211.448V462.851H169.182V486ZM359.438 486V462.851H338.276V486H359.438ZM274.877 486H296.025V439.702H274.877V486ZM105.724 185.16V208.309H169.153V185.16H105.724ZM84.606 208.293V185.144H42.2956V231.442H63.4434V208.293H84.606ZM148.02 161.995H0.0296603V0.0162336H148.02V161.995ZM126.872 23.1653H21.1478V138.862H126.872V23.1653ZM42.2956 439.718H105.709V370.287H42.2956V439.718ZM253.714 416.553V439.718H274.892V416.553H253.714ZM105.724 46.3143H42.3104V115.713H105.724V46.3143ZM443.985 0.0162336V162.011H295.995V0.0162336H443.985ZM422.837 23.1653H317.143V138.862H422.837V23.1653ZM0 323.973H148.005V485.968H0V323.973ZM21.1626 462.867H126.887V347.138H21.1626V462.867ZM21.1626 185.16H0V300.889H21.1626V185.16ZM295.995 300.856V323.973H317.143V300.856H295.995ZM232.566 393.436V370.287H211.434V393.453H169.168V439.767H211.434V462.916H232.566V416.602H253.729V393.453H232.566V393.436ZM169.182 92.5962H211.448V69.4147H169.182V92.5962ZM338.291 277.74H380.616V300.889H401.749V231.474H380.616V185.16H359.438V254.591H296.054V277.756H317.202V300.905H338.35V277.756H338.291V277.74ZM359.438 347.138H338.276V323.973H317.128V370.287H253.714V393.453H296.04V439.767H317.187V462.916H338.335V416.602H422.882V393.453H359.468V347.138H359.438ZM359.438 347.138H380.616V300.856H359.438V347.138ZM190.301 347.138V323.973H211.419V300.856H232.552V277.707H253.714V231.393H317.128V185.079H295.98V208.228H274.832V115.664H253.685V69.3497H274.832V0H253.685V46.2981H232.537V0H169.123V46.2981H190.271V23.149H211.389V69.4147H232.537V138.846H253.685V161.995H232.537V208.293H211.389V161.995H190.271V138.862H169.123V185.16H190.271V208.309H169.123V277.756H190.271V231.442H211.389V277.756H190.271V300.905H169.123V370.287H211.389V347.138H190.301ZM422.837 370.287V347.138H380.571V370.287H422.837ZM401.69 46.3143H338.291V115.713H401.69V46.3143ZM232.566 347.138H274.892V323.973H253.714V300.856H232.552V347.138H232.566ZM274.877 300.856V277.707H253.699V300.856H274.877ZM401.69 208.293H444V185.144H401.69V208.293ZM422.837 393.436H444V370.287H422.837V393.436ZM422.837 254.591H444V231.442H422.837V254.591ZM232.566 138.862H211.434V162.011H232.566V138.862Z" fill="black"/>
</g>
</g>
</svg>
