<?xml version="1.0" encoding="utf-8"?>
<!-- Generator: Adobe Illustrator 24.0.2, SVG Export Plug-In . SVG Version: 6.00 Build 0)  -->
<svg version="1.1" id="Capa_1" xmlns="http://www.w3.org/2000/svg" xmlns:xlink="http://www.w3.org/1999/xlink" x="0px" y="0px"
	 viewBox="0 0 1366 768" style="enable-background:new 0 0 1366 768;" xml:space="preserve" >
<style type="text/css">
	.st0{fill:#33A6A6;}
	.st1{fill:#17008A;}
	.st2{fill:#F4D329;}
	.st3{fill:#8A005D;}
	.st4{fill:#BCBEC0;}
	.st5{fill:#F1F2F2;}
	.st6{fill:none;stroke:#000000;stroke-width:5.1926;stroke-linejoin:round;stroke-miterlimit:10;}
	.st7{fill:#473023;}
	.st8{fill:#C49661;}
	.st9{fill:#826340;}
	.st10{fill:none;stroke:#000000;stroke-width:6.1022;stroke-linejoin:round;stroke-miterlimit:10;}
	.st11{fill:#397EB3;}
	.st12{fill:#3D2B22;}
	.st13{fill:#5E4234;}
	.st14{fill:none;stroke:#000000;stroke-width:5.1926;stroke-miterlimit:10;}
	.st15{fill:#36281A;}
	.st16{fill:#473023;stroke:#473023;stroke-width:0.5085;stroke-miterlimit:10;}
	.st17{fill:#705537;}
	.st18{fill:none;stroke:#000000;stroke-width:5.8493;stroke-miterlimit:10;}
	.st19{fill:none;stroke:#000000;stroke-width:3;stroke-miterlimit:10;}
	.st20{fill:#4C9BD6;}
	.st21{fill:#FFFFFF;}
	.st22{fill:#D1D3D4;}
	.st23{fill:#67AFE6;stroke:#67AFE6;stroke-width:0.5085;stroke-miterlimit:10;}
	.st24{fill:#397EB3;stroke:#397EB3;stroke-width:3;stroke-miterlimit:10;}
	.st25{fill:#E6E7E8;}
	.st26{fill:none;stroke:#000000;stroke-width:2.5963;stroke-miterlimit:10;}
	.st27{fill:#6E4A36;}
	.st28{fill:#DEA96E;}
	.st29{fill:#9C774D;stroke:#9C774D;stroke-width:0.5085;stroke-miterlimit:10;}
	.st30{fill:#2E1F17;}
	.st31{fill:#6E4A36;stroke:#6E4A36;stroke-width:0.5085;stroke-miterlimit:10;}
	.st32{fill:none;stroke:#000000;stroke-width:5.1926;stroke-linecap:round;stroke-linejoin:round;stroke-miterlimit:10;}
	.st33{fill:#231F20;}
	.st34{fill:none;}
	.st35{fill:#880F9C;}
</style>
<path class="st0" d="M337.9-0.7C330.6-0.3,323.3-0.9,316-1c-0.4,0-0.8,0-1.1-0.1c-2.9,0.3-5.9,0.6-8.8,0.8
	c-19.2,1.6-39.4,1.8-58.6-0.2c-0.4,0-0.8-0.1-1.2-0.3C236.1,0.1,225.8,1,215.5,1c-1.2,0-2.2-0.4-3-0.9c-6.4,0.6-12.8,0.8-19.3-0.2
	c-0.7-0.1-1.3-0.3-1.8-0.6c-2-0.1-4-0.2-6-0.3c-5,0.5-10.1,0.6-15.2,0.4c-0.3,0-0.5,0.1-0.8,0.1c-1.3,0-2.6,0-3.9,0
	c-2.8,0.1-5.6,0.2-8.4,0.2c-0.6,0-1.1-0.1-1.6-0.2c-21.8-0.2-43.5-0.7-65.3-0.9c-2.6,0-5.2,0.1-7.8,0.1C70.2-1.4,58-1.3,45.8-1.3
	c-10.8,1.2-21.6,2-32.4,1.9C8.6,0.5,3.8,0.3-0.5-1c0.1,11.7,0.2,23.4,0.3,35.1c0,15.6,0.1,31.3,0,47c0,4.8,0.1,9.6,0.1,14.4
	c0.1,1.1,0.2,2.3,0.3,3.4c0.7,10,0.2,19.8-0.5,29.6c-0.2,10.1-0.4,20.3-0.6,30.4c3.1,26.2,1.7,52.5-0.3,78.7
	c0.6,6.5,1.5,13.1,2.3,19.6C129.7,296.5,343.8,244.1,337.9-0.7z"/>
<circle class="st1" cx="813" cy="165" r="50"/>
<circle class="st2" cx="583" cy="66" r="50"/>
<circle class="st1" cx="199" cy="698" r="50"/>
<circle class="st2" cx="579" cy="702" r="43"/>
<circle class="st1" cx="402" cy="166" r="50"/>
<circle class="st0" cx="614" cy="501" r="50"/>
<circle class="st3" cx="352" cy="609" r="50"/>
<circle class="st1" cx="722.5" cy="622.5" r="22.5"/>
<circle class="st3" cx="604" cy="216" r="50"/>
<circle class="st0" cx="1189.5" cy="257.5" r="33.5"/>
<circle class="st1" cx="1266" cy="81" r="50"/>
<circle class="st3" cx="1084" cy="112" r="88"/>
<g>
	<path class="st4" d="M494.7,610.6c11.6,4.7,11.4,22.5,5.8,28.1c-3,3.1-19.8,9.3-35.4,2.1c-19.4-13.5-85.5-48.4-85.5-48.4
		s-47.2,21.9-91,22.7c-43.8,0.8-77.5-9.3-90.9-12.6c-5-1.2-13.9,3.2-24.1,9.7l-5.1-5.1c12.9-8.7,25.8-18.9,35.5-28.7
		c70.1,16,108.6,17.7,177-10.8c25.1,31.2,69.7,55,85.2,56.7c15.6,1.7,28.1-12.1,28.1-12.1L494.7,610.6z"/>
	<path class="st5" d="M494.7,610.6l-0.4,1.6c0,0-12.5,13.8-28.1,12.1c-15.6-1.7-60.2-25.5-85.2-56.7c-68.4,28.6-106.9,26.8-177,10.8
		c-9.7,9.8-22.6,20-35.5,28.7c-16.7,11.2-33.5,19.9-43.7,22.3c-18.2,4.3-27.3-14.3-27.3-14.3l-2-0.1c5.7-5.3,13.3-1.2,24.7-4.5
		c11.8-3.3,32.9-22.3,33.7-29.1c0.8-6.7-16-26.9-16.9-52.2c-0.8-25.3,19.4-57.3,43-70.7c18.7-10.7,148.3-10.3,201-9.6l0,2.7
		c0,0,71.8,44.6,64,101.3l1.8,0.5c-4.4,16.4-9.9,29.3-9.1,31.5c1.7,4.2,34.5,27.8,55.6,25.3C493.8,610.2,494.3,610.4,494.7,610.6z"
		/>
	<path class="st4" d="M450.4,506.9c3.3,14.8,0.3,32-3.6,46.4l-1.8-0.5c7.8-56.7-64-101.3-64-101.3l0-2.7c13.7,0.2,22.2,0.3,22.2,0.3
		S441.9,469,450.4,506.9z"/>
	<path class="st4" d="M168.5,607.1l5.1,5.1c-17.2,10.9-38.1,27.3-50,30.7c-7.3,2.1-19.8,2.8-24.4,0c-8.4-5-10.1-21.1-4.2-27.4
		c0.2-0.2,0.4-0.4,0.5-0.5l2,0.1c0,0,9.1,18.6,27.3,14.3C135,627,151.8,618.3,168.5,607.1z"/>
	<path class="st6" d="M381,448.9c-52.7-0.6-182.2-1.1-201,9.6c-23.6,13.5-43.8,45.5-43,70.7c0.9,25.3,17.7,45.5,16.9,52.2
		c-0.8,6.8-21.9,25.7-33.7,29.1c-11.4,3.3-19-0.8-24.7,4.5c-0.2,0.2-0.4,0.4-0.5,0.5c-5.9,6.3-4.2,22.3,4.2,27.4
		c4.6,2.8,17.1,2.1,24.4,0c11.9-3.5,32.8-19.9,50-30.7c10.2-6.4,19.1-10.9,24.1-9.7c13.5,3.4,47.1,13.5,90.9,12.6
		c43.8-0.9,91-22.7,91-22.7s66.1,34.9,85.5,48.4c15.6,7.2,32.4,1,35.4-2.1c5.6-5.7,5.9-23.4-5.8-28.1c-0.4-0.2-0.9-0.4-1.4-0.5
		c-21.1,2.5-53.9-21.1-55.6-25.3c-0.9-2.2,4.7-15.1,9.1-31.5c3.9-14.5,6.9-31.6,3.6-46.4c-8.4-37.9-47.2-57.7-47.2-57.7
		S394.7,449,381,448.9z"/>
	<polygon class="st4" points="385.4,449 408.9,460.2 403.9,599.3 385.4,599.3 	"/>
	<path class="st4" d="M361,467.3c-41.5,26.6-100.8,15.8-116.8,27.5c-16.9,12.3-14.9,107.9-14.9,107.9l-24,0.5l7.8-153.9h166.2
		C379.2,449.3,365.6,445.9,361,467.3z"/>
	<path class="st7" d="M165.9,205.6c0.2,7.2-16.2,14.5-22.1-1.5c-8.7-23.5-50.1-71.9-45.3-87.8c3-9.7,23.6-32.7,53.3-40.6
		c29.7-8,38.3,1.3,38.3,1.3c0.3-0.3,0.6-0.6,1-0.9l0.2,0.3c8.9,24.6-2.2,41.2-4.9,44.7l0.6,0.5c-1,1.3-1.7,2.4-2.1,3
		c0.1-1.4,0.1-2.2,0.1-2.2C165.9,145.8,165.7,200.1,165.9,205.6z"/>
	<path class="st5" d="M186.4,121.1c2.7-3.6,13.8-20.1,4.9-44.7l-0.2-0.3c16.4-14.3,50.4-30.5,85.1-32.7l0,0.5
		c0,0,14.7,77.6,75.8,75.3c3.2,8.7,5.6,17,6.1,23.4c2.1,25.3-8.8,67.4,0,93.5c4.5,13.4,19,38.7,32.5,64.3l-1,0.5
		c23.4,65.6,3.2,147.1,1.9,164.9c-1.2,16.7-2.4,133.1-3.5,165.4c-0.1,2.1-0.1,3.8-0.2,5.1c-0.9,16.4-18.2,17.7-18.2,17.7l-2.3,0.1
		l-7.5-200.3l0.9-0.2c-24.3-119.9-184.1-21.1-184.1-21.1l-0.6,0.2c-5.1-20.3-11.5-45.5-11.2-60.1c0.8-37.9,35.4-55.6,37.9-109.5
		c1.7-36.2-14.6-49.7-18-71.6c-2.9-19.1-0.4-57.2-0.4-66.8v0c0-0.6,1.4-1.7,2.4-3L186.4,121.1z M310.7,150c0.5-13.1,7.9-25,0.9-32.1
		c-9.1-9.3-27.3-7.4-36.9,1.1c-12.8,11.2-11.7,33.7-8.7,46.7c2.3,9.7,9.7,24,26.5,22.4C316.2,185.9,310.3,164.3,310.7,150z"/>
	<path class="st4" d="M394.3,632.8c0,0,21,9.8,27,13.5c5.5,3.4,2.3,16.6-1.2,21.1c-3.6,4.4-16.4,9.5-23.2,8
		c-6.8-1.5-19-13.3-29.5-19.8l-0.1-1.4l2.3-0.1c0,0,17.3-1.3,18.2-17.7c0.1-1.3,0.1-3.1,0.2-5.1l6.3,0.2
		C394.4,632.4,394.3,632.8,394.3,632.8z"/>
	<path class="st8" d="M326.7,65.3c-0.2-0.1-0.5,0.2-0.4,0.4c2.7,4.8,17.1,30.7,25.6,53.5c-61.1,2.3-75.8-75.3-75.8-75.3l0-0.5
		c7.6-0.5,15.1-0.3,22.6,0.7c0,0,4.2-13.6,15.1-17.6c11-4.1,64.9-8.6,78.3,2.7c4.5,3.8,7.7,8.5,9.8,13.6
		c2.9,19.3-4.9,63.8-19.6,60.2c-14.8-3.6-32.1-35.6-51.9-35.7C329.3,66.6,328,65.9,326.7,65.3z"/>
	<path class="st9" d="M378.4,141c-2.2-8.8-19.4-57.1-47.8-73.7c19.8,0.1,37.2,32.1,51.9,35.7c14.7,3.6,22.5-40.9,19.6-60.2
		c4.2,9.9,4.8,21.7,5.3,32.2c0.9,16-3.8,49.3-7.6,59.4C395.5,146.1,380.7,150.2,378.4,141z"/>
	<path class="st4" d="M416.9,365c3.6,32-13.7,78.3-14.5,93.5c-0.8,14.3-7.3,157.4-8,173l-6.3-0.2c1.1-32.3,2.3-148.7,3.5-165.4
		c1.3-17.7,21.4-99.3-1.9-164.9l1-0.5C403.3,324.7,415.1,349.4,416.9,365z"/>
	<path class="st7" d="M219,526.3c-7.5-1.6-28.4-7.3-34.6-20.8c-1.1-23.2-2.1-41.8-2.7-47c-0.7-5.8-3-15.1-5.7-25.8l0.6-0.2
		c0,0,159.8-98.8,184.1,21.1l-0.9,0.2c0,0-33.7,21.9-69.5,21.1c-34.5-0.8-65.3-18.5-65.3-18.5l-3,70.5l-0.4,0
		C221.7,526.9,220.7,526.7,219,526.3z"/>
	<path class="st8" d="M311.7,117.9c7,7.2-0.5,19-0.9,32.1c-0.5,14.3,5.5,35.9-18.2,38.1c-16.8,1.6-24.2-12.7-26.5-22.4
		c-3.1-13-4.1-35.5,8.7-46.7C284.4,110.5,302.5,108.6,311.7,117.9z"/>
	<path class="st4" d="M222.1,526.9l-5.4,128.7c-10.5,6.5-22.7,18.3-29.5,19.8c-6.8,1.5-19.6-3.6-23.2-8c-2.6-3.2-5-11.1-4-16.4
		l0.6,0.1c0,0,13,10.8,31.6,8.2c10.6-1.5,15.1-9.9,16.4-14.7c0.8-2.8,6.1-66.8,10.3-118.2c1.7,0.4,2.6,0.5,2.6,0.5L222.1,526.9z"/>
	<path class="st5" d="M219,526.3c-4.2,51.4-9.6,115.4-10.3,118.2c-1.3,4.8-5.8,13.2-16.4,14.7c-18.6,2.6-31.6-8.2-31.6-8.2l-0.6-0.1
		c0.4-2,1.2-3.7,2.7-4.6c5.9-3.7,26.9-13.5,26.9-13.5s-2.8-75.3-5.3-127.3C190.7,519,211.6,524.7,219,526.3z"/>
	<path class="st6" d="M184.9,124.7c-0.6,9.6-2.8,47.8,0.1,66.8c3.4,21.9,19.4,35.4,17.7,71.6c-2.5,53.8-37,71.6-37.9,109.5
		c-0.3,14.7,6.1,39.8,11.2,60.1c2.6,10.7,4.9,20,5.7,25.8c0.6,5.2,1.7,23.8,2.7,47c2.4,52,5.3,127.3,5.3,127.3s-21,9.8-26.9,13.5
		c-1.5,0.9-2.4,2.6-2.7,4.6c-1,5.3,1.4,13.2,4,16.4c3.6,4.4,16.4,9.5,23.2,8c6.7-1.5,18.9-13.3,29.5-19.8l5.4-128.7l3-70.5
		c0,0,30.7,17.7,65.3,18.5c35.8,0.8,69.5-21.1,69.5-21.1l7.5,200.3l0.1,1.4c10.5,6.5,22.7,18.3,29.5,19.8c6.7,1.5,19.6-3.6,23.2-8
		c3.6-4.4,6.7-17.7,1.2-21.1c-5.9-3.7-27-13.5-27-13.5s0-0.5,0.1-1.4c0.7-15.6,7.2-158.6,8-173c0.8-15.2,18.1-61.5,14.5-93.5
		c-1.7-15.6-13.6-40.2-26.3-64.5c-13.4-25.7-27.9-50.9-32.5-64.3c-8.8-26.1,2.1-68.2,0-93.5c-0.5-6.4-2.9-14.7-6.1-23.4
		c-8.5-22.8-22.9-48.8-25.6-53.5c-0.2-0.3,0.1-0.5,0.4-0.4c1.3,0.6,2.5,1.3,3.8,2c28.4,16.6,45.6,64.9,47.8,73.7
		c2.3,9.2,17.1,5.1,21.5-6.5c3.8-10.1,8.4-43.4,7.6-59.4c-0.5-10.6-1.1-22.3-5.3-32.2c-2.2-5.1-5.3-9.8-9.8-13.6
		c-13.5-11.2-67.4-6.7-78.3-2.7c-10.9,4.1-15.1,17.6-15.1,17.6c-7.5-1-15-1.2-22.6-0.7c-34.7,2.2-68.8,18.4-85.1,32.7
		c-0.3,0.3-0.6,0.6-1,0.9c0,0-8.6-9.3-38.3-1.3c-29.7,8-50.3,30.9-53.3,40.6c-4.8,15.9,36.6,64.3,45.3,87.8
		c5.9,16,22.3,8.6,22.1,1.5c-0.2-5.5,0-59.8,19.2-83.2C185.1,122.4,185,123.2,184.9,124.7"/>
	<line class="st10" x1="185.7" y1="125.2" x2="185.7" y2="125.2"/>
	<path class="st11" d="M574.8,160.3c-0.9-1.6-21.5-29.1-21.5-29.1s17.1-19.9,34.7-19.6c-2.5,20.2,2.1,32.6,2.1,32.6L574.8,160.3z"/>
	<path d="M574.3,164.6l-1.7-2.9c-0.8-1.3-13.2-18-21.3-28.8l-1.2-1.7l1.4-1.6c0.7-0.9,18-20.8,36.8-20.5l2.9,0.1l-0.4,2.9
		c-2.4,19.4,1.9,31.3,2,31.4l0.6,1.5L574.3,164.6z M556.7,131.4c4.2,5.6,14.2,19,18.4,24.8l12.1-12.6c-1.1-3.8-3.5-14.2-2.1-29.2
		C572.7,115.8,560.7,127.3,556.7,131.4z"/>
	<path class="st12" d="M239.2,286.8l4.7,7.1C118.7,337.5,15,373.6,10.7,375.1c-7.3,2.5-11.2-4.9-11-11l2.2,0.1
		C36.1,361.6,211.3,297.1,239.2,286.8z"/>
	<path class="st13" d="M234.6,280l4.5,6.8c-27.8,10.3-203.1,74.8-237.3,77.4l-2.2-0.1c0.1-3,1.2-5.7,3.4-6.7
		C6.7,355.8,125,316.5,234.6,280z"/>
	<path class="st14" d="M234.6,280C125,316.5,6.7,355.8,3.1,357.4c-2.2,1-3.3,3.7-3.4,6.7c-0.2,6.1,3.7,13.6,11,11
		c4.3-1.5,108-37.6,233.2-81.2"/>
	<path class="st12" d="M696.3,118.6c9.3-3.4,8,15.6-4.2,19.4c-5.3,1.7-188.1,65.3-363.1,126.2l0.1-7.4
		c4.9-1.6,232.9-76.4,244.2-88.9c2.3-2.6,5.9-5.3,10.1-7.9c10.5-3.8,20.8-7.6,30.6-11.2c0.5,0,1,0,1.5,0
		c28.6,1.9,72.3-15.4,74.4-16.6c9-4.9,8-13.3,8-13.3l-2.1-0.1C696,118.7,696.2,118.7,696.3,118.6z"/>
	<path class="st13" d="M697.9,118.9c0,0,1,8.4-8,13.3c-2.2,1.2-45.9,18.5-74.4,16.6c-0.5,0-0.9-0.1-1.5,0
		c42.2-15.5,76.7-28.1,81.8-29.9L697.9,118.9z"/>
	<path class="st13" d="M583.4,160c-4.2,2.6-7.8,5.3-10.1,7.9C562,180.5,334,255.2,329.1,256.8l0.1-8.2
		c52.9-17.6,90.9-30.2,90.9-30.2s2.9-18.5,5-25.3c2.1-6.8,18.1-8.9,17.7-5.1c-0.4,3.8-5.1,25.3-5.1,25.3S513.8,185.5,583.4,160z"/>
	<path class="st14" d="M329,264.2C504,203.3,686.8,139.7,692.1,138c12.2-3.8,13.5-22.7,4.2-19.4c-0.1,0-0.3,0.1-0.5,0.2
		c-5,1.8-39.5,14.5-81.8,29.9c-9.9,3.6-20.2,7.4-30.6,11.2c-69.6,25.5-145.7,53.4-145.7,53.4s4.6-21.5,5.1-25.3
		c0.4-3.8-15.6-1.7-17.7,5.1c-2.1,6.7-5,25.3-5,25.3s-37.9,12.6-90.9,30.2"/>
	<path d="M210.8,170.1c-0.8,0-1.6-0.5-1.9-1.4c-0.7-2.3-2.9-4.2-5.9-4.9c-3.2-0.8-6.6,0-8.6,1.9c-0.8,0.8-2,0.8-2.8,0
		c-0.8-0.8-0.8-2,0-2.8c2.9-2.9,7.6-4.1,12.2-2.9c4.3,1.1,7.5,3.9,8.7,7.5c0.3,1-0.3,2.1-1.3,2.4C211.1,170,210.9,170.1,210.8,170.1
		z"/>
	<path d="M324.4,163.1c-0.9,0-1.7-0.6-1.9-1.5c-0.8-2.9,0.1-6.5,2.2-9.6c2.3-3.3,5.7-5.4,9.4-5.7c1.1-0.1,2,0.7,2.1,1.8
		c0.1,1.1-0.7,2-1.8,2.1c-2.5,0.2-4.9,1.7-6.6,4.1c-1.5,2.1-2.1,4.5-1.6,6.3c0.3,1-0.4,2.1-1.4,2.4
		C324.8,163.1,324.6,163.1,324.4,163.1z"/>
	<path d="M183,129c-0.3,0-0.6,0-0.9-0.1c-1.4-0.5-2.1-2-1.6-3.3c0.1-0.4,3.3-8.9,20.3-21.4c1.2-0.8,2.8-0.6,3.6,0.6
		c0.8,1.2,0.6,2.8-0.6,3.6c-15.5,11.4-18.4,18.9-18.4,18.9C185,128.3,184,129,183,129z"/>
	<path d="M330.3,69.9c-0.4,0-0.9-0.1-1.3-0.3c-10.7-6-17.5-6.5-17.5-6.5c-1.4-0.1-2.5-1.3-2.5-2.7c0.1-1.4,1.3-2.5,2.7-2.5
		c0.3,0,8,0.4,19.9,7.1c1.2,0.7,1.7,2.3,1,3.5C332.1,69.4,331.2,69.9,330.3,69.9z"/>
	<path class="st15" d="M305.6,233.1c0.1,4.4-1.1,9.5-3.1,14.4c-0.6,0.2-8.2,3.2-9.1,6.2c-0.8,2.6,0.8,5.5,1.4,6.6
		c-3.2,3.7-6.8,6.4-10.4,7.4c-4.2,1.2-9.4-0.3-14.4-3.3c0.3-1.2,0.7-4.5-0.8-6.6c-1.7-2.4-8.7-2.8-10.3-2.9c-1.4-1.6-2.7-3.3-3.8-5
		l0.1-0.1C255.3,249.8,289.1,261.2,305.6,233.1z"/>
	<path class="st16" d="M305.3,229.7c0.2,1.1,0.3,2.2,0.3,3.4c-16.5,28.1-50.3,16.6-50.3,16.6l-0.1,0.1c-1-1.6-1.9-3.2-2.6-4.7
		l1.2-0.2c0,0,22.3-18.6,49.8-16.9l0.7-0.5C304.8,228.2,305.1,228.9,305.3,229.7z"/>
	<path class="st17" d="M304.2,227.5l-0.7,0.5c-27.5-1.7-49.8,16.9-49.8,16.9l-1.2,0.2c-0.7-1.5-1.2-3-1.5-4.5
		c-1.6-7.7,8.3-14.2,23.5-17.5C287.7,220.2,300.5,222.6,304.2,227.5z"/>
	<path d="M293.4,253.7c0.9-3,8.5-6,9.1-6.2c-1.9,4.7-4.6,9.2-7.7,12.8C294.2,259.2,292.6,256.3,293.4,253.7z"/>
	<path d="M269.3,257.7c1.5,2.1,1.1,5.4,0.8,6.6c-4-2.4-7.9-5.8-11.1-9.5C260.6,254.9,267.5,255.3,269.3,257.7z"/>
	<path class="st18" d="M252.5,245.1c-0.7-1.5-1.2-3-1.5-4.5c-1.6-7.7,8.3-14.2,23.5-17.5c13.3-2.9,26.1-0.5,29.8,4.4
		c0.6,0.7,0.9,1.5,1.1,2.3c0.2,1.1,0.3,2.2,0.3,3.4c0.1,4.4-1.1,9.5-3.1,14.4c-1.9,4.7-4.6,9.2-7.7,12.8c-3.2,3.7-6.8,6.4-10.4,7.4
		c-4.2,1.2-9.4-0.3-14.4-3.3c-4-2.4-7.9-5.8-11.1-9.5c-1.4-1.6-2.7-3.3-3.8-5C254.1,248.3,253.2,246.7,252.5,245.1z"/>
	<path class="st19" d="M257.4,253.8c0,0,1.3,0,1.6,0c1.7,0,8.6,1,10.3,3.4c1.5,2.1,1.1,5.6,0.8,6.9c-0.1,0.3-0.7,0.1-0.7,0.1"/>
	<path class="st18" d="M294.8,260.3c0.1,0.3,0.3,0.4,0.3,0.4"/>
	<path class="st19" d="M301.4,247.8c0,0,1.2,0,1.1,0c-0.6,0-8.2,3-9.1,6.1c-0.8,2.6,0.2,5.6,0.9,6.6"/>
	<path d="M251.6,175.7c-0.2,0-0.4,0-0.6-0.1c-1.3-0.6-2.6-1-4-1.2l0,0c-1.1-0.1-2.2,0-3.5,0.2c-0.3,0.1-0.7,0-1-0.2
		c-0.3-0.2-0.5-0.5-0.5-0.9c0-0.3-0.1-0.6-0.1-0.8c0-3,2.6-5.5,5.7-5.5c3.2,0,5.7,2.5,5.7,5.5c0,0.8-0.2,1.5-0.5,2.2
		c-0.2,0.3-0.4,0.6-0.8,0.7C251.9,175.7,251.8,175.7,251.6,175.7z"/>
	<path class="st20" d="M588.1,108.5c5.7-14.2,37.9-31,42.6-34.4c6.6-4.7,9.5-11.7,13.3-14.2c3.8-2.5,9.8,2.2,11.1,6.3
		c3.4,11,6,27.5-6.9,48c-10.3,16.4-23.1,32.8-37.9,33.8c-8.8,0.6-20-3.7-20-3.7S582.4,122.7,588.1,108.5z"/>
	<path class="st20" d="M574.8,160.3c-3.5-5.7-8.5-15.5-13.6-27.5c-6.1-14.5-36.3-30.3-66-32.5c1.6,10.1,12,43.3,32.2,59.4
		C547.6,175.8,576.6,163.3,574.8,160.3z"/>
	<path d="M551.7,170.3c-8.5,0-17.8-2.2-25.9-8.6c-22.2-17.7-31.9-53.2-33.2-61c-0.1-0.8,0.1-1.6,0.7-2.2c0.5-0.6,1.3-0.9,2.1-0.8
		c29.6,2.2,61.5,18.1,68.2,34.1c4.4,10.5,9.4,20.6,13.4,27.1l0,0c0.4,0.6,1.3,2.6-1.2,4.9C572.8,166.5,563.1,170.3,551.7,170.3z
		 M498.4,103.2c2.9,12.5,13,40.4,30.6,54.4c9.5,7.6,20.7,8.1,28.4,7.2c7.3-0.9,12.5-3.2,14.4-4.5c-4-6.7-8.8-16.5-13-26.5
		C553.7,121.6,527.1,106.4,498.4,103.2z"/>
	<path d="M570.7,162.7c-11.2,0-32-5.7-43.1-13.4c-12.6-8.7-33.2-46.4-34.1-48l3.4-1.9c0.2,0.4,21.1,38.5,32.9,46.7
		c11.7,8.1,36.9,14.4,44.5,12.4l1,3.8C574.1,162.5,572.5,162.7,570.7,162.7z"/>
	<path class="st4" d="M309.8,270.8c12.1-12.6,12.3-33,12.3-33l6.4,9.7c1.3,2.3,3,5.7,3.2,8.8c0.2,4.6-1.7,6.3-2.9,8.7
		c-6.3,12-20.4,31.7-37.5,34.2c-17.2,2.5-35.3,0.1-46.4-5.1c-1.4-0.6-4.5-0.4-7.9-5.5C235,286,284.4,297.1,309.8,270.8z"/>
	<path d="M277.1,302.9c-12.4,0-24.6-2.2-33.5-6.3c-0.2-0.1-0.4-0.1-0.6-0.2c-1.8-0.5-5.1-1.4-8.4-6.2c-2.4-3.6-2.6-9.6-2.5-11.7
		c0.7-13.4-0.6-31.2-3.5-36.5c-1.4-2.5-5.2-7-9.7-12.1c-10.2-11.8-22.9-26.5-23.9-37.3c-1.3-15.2,5-30.1,5.3-30.7l4.8,2
		c-0.1,0.1-6,14.3-4.9,28.2c0.8,9.1,13.4,23.7,22.6,34.4c4.9,5.6,8.7,10.1,10.3,13c3.8,7,4.7,27.2,4.1,39.3
		c-0.1,2.3,0.4,6.7,1.7,8.5c2.1,3.2,3.9,3.7,5.4,4.1c0.6,0.2,1.1,0.3,1.5,0.5c11.5,5.3,29.1,7.2,45,4.8
		c14.7-2.2,28.4-19.1,35.6-32.9c0.3-0.6,0.6-1.1,1-1.7c1-1.6,1.8-2.9,1.7-5.7c-0.1-2.7-1.9-6-2.8-7.7c-3.5-6.4-6.5-13.3-4.7-20.8
		c1.1-4.4,3.7-10.3,6.8-17.1c4.6-10.1,9.8-21.6,10.8-30.6c1.5-13.9-14-25.3-14.1-25.4l3-4.2c0.7,0.5,18,13.3,16.2,30.2
		c-1.1,9.9-6.5,21.7-11.2,32.2c-2.9,6.3-5.6,12.2-6.5,16.1c-1.5,6,1.4,12,4.2,17.1c1.7,3.1,3.3,6.5,3.5,10c0.2,4.4-1.3,6.8-2.4,8.7
		c-0.3,0.4-0.5,0.9-0.8,1.3c-2.8,5.4-17.9,32.4-39.4,35.6C286.8,302.6,282,302.9,277.1,302.9z"/>
	<path class="st21" d="M599.9,108.8c3.3,0,6-2.7,6-6c0-2.9-2-5.3-4.7-5.9c-2.8,2.3-5.2,4.7-7.2,7C594.5,106.7,597,108.8,599.9,108.8
		z"/>
	<path class="st21" d="M549.7,137.4c0,3.3-2.7,6-6,6c-3.3,0-6-2.7-6-6c0-3.3,2.7-6,6-6C547,131.4,549.7,134.1,549.7,137.4z"/>
	<path class="st21" d="M517.8,110.2c0,3.3,2.7,6,6,6c2.9,0,5.3-2,5.9-4.7c-3.5-1.5-7.3-2.9-11.2-4.1
		C518,108.2,517.8,109.2,517.8,110.2z"/>
	<path class="st21" d="M580.6,130.3c0,3.3-2.7,6-6,6c-3.3,0-6-2.7-6-6c0-3.3,2.7-6,6-6C577.9,124.3,580.6,127,580.6,130.3z"/>
	<path class="st22" d="M766.6,297.7c1.5,5.3,1.9,9.3,2,11.4c-0.8,0.4-1.6,0.6-2.5,0.6c-3.3,0-6-2.7-6-6s2.7-6,6-6
		C766.2,297.6,766.4,297.7,766.6,297.7z"/>
	<path class="st21" d="M720.2,278.1c3.3,0,6,2.7,6,6s-2.7,6-6,6c-3.3,0-6-2.7-6-6S716.9,278.1,720.2,278.1z"/>
	<path class="st22" d="M711.5,363.3c2.1,0,3.9,1,5,2.6c-2.3,2.4-5.2,5.2-8.9,7.9c-1.3-1.1-2.1-2.7-2.1-4.5
		C705.5,366,708.2,363.3,711.5,363.3z"/>
	<path class="st20" d="M609.3,151.6l0.9-1.5c12.6,7.4,26.6,19,32.2,22.8c9.1,6.3,29.1,8.1,46.3,20c17.3,11.9,19.4,44.4,19.4,44.4
		H708c0.1,0,0.2,0.4,0.3,1.6c-0.4-0.2-0.9-1.2-1.4-1.4c-0.8-0.4-1.4-1.6-1.5-2.5c0-0.1-0.2-2.2-0.6-5.3c-0.6-0.2-1.3-0.4-2-0.4
		c-3.3,0-6,2.6-6,6s2.7,6,6,6c2.4,0,4.5-1.4,5.4-3.4c0.5,8.1,0.4,23.8-5.4,43.7c15.1,16,20.8,39.8,6.9,65.3
		c-10,18.5-39.6,28.8-61.4,28.6c-12.5-0.1-22.5-3.7-24.7-11.3c-4.6,14.2-24,28.9-44.6,28.8c-1-0.7-2.2-1.1-3.5-1.1
		c-1,0-1.9,0.2-2.7,0.6c-12-1.8-23.9-9.1-33.3-24.9c-7.3,50.8-53.6,4.3-53.6,4.3l-1.9,0.6c-4.5-8.6-6.8-17.9-7.2-25.2
		c-0.8-16.9,6.3-41,19.5-66c14-26.5,63.6-75.8,72.5-90.9l0.4,0.1C577.5,176.3,596.2,146.8,609.3,151.6z M699.4,321.8
		c0-3.3-2.7-6-6-6s-6,2.7-6,6c0,3.3,2.7,6,6,6S699.4,325.1,699.4,321.8z M661.1,269.8c0-3.3-2.7-6-6-6s-6,2.7-6,6s2.7,6,6,6
		S661.1,273.1,661.1,269.8z M660.4,193.9c0-3.3-2.7-6-6-6s-6,2.7-6,6c0,3.3,2.7,6,6,6S660.4,197.2,660.4,193.9z M647.1,314.2
		c0-3.3-2.7-6-6-6s-6,2.7-6,6c0,3.3,2.7,6,6,6S647.1,317.5,647.1,314.2z M623.2,165.4c0.8-0.7,1.3-1.5,1.6-2.4
		c-3-2.2-6.3-4.5-9.6-6.7c-2.5,2.2-2.8,6-0.5,8.5C616.9,167.4,620.7,167.6,623.2,165.4z M613,240c0-3.3-2.7-6-6-6s-6,2.7-6,6
		c0,3.3,2.7,6,6,6S613,243.3,613,240z M599.8,338.2c0-3.3-2.7-6-6-6c-3.3,0-6,2.7-6,6s2.7,6,6,6
		C597.1,344.3,599.8,341.6,599.8,338.2z M597.8,191.5c0-3.3-2.7-6-6-6s-6,2.7-6,6s2.7,6,6,6S597.8,194.8,597.8,191.5z M586.7,217.3
		c0,0,1.9-8-6.2-15.3c-18.1,11.3-36.7,32.1-59.7,68.5c-13.5,21.3-24.2,42.4-21.7,57.2c-1.7,1.1-2.8,2.9-2.8,5.1c0,3.3,2.7,6,6,6
		c0.8,0,1.6-0.2,2.2-0.4c5,5,13.6,8.3,26.9,9c28.8,1.7,29-15.5,31.6-45c2.9-0.4,5.1-2.9,5.1-5.9c0-2.6-1.6-4.8-3.9-5.6
		C566.7,270.3,571.5,245.3,586.7,217.3z M529.7,383.2c0-3.3-2.7-6-6-6c-3.3,0-6,2.7-6,6s2.7,6,6,6
		C527,389.2,529.7,386.5,529.7,383.2z M513.2,274.3c0-3.2-2.6-5.8-5.7-5.8c-2.1,2.9-3.9,5.6-5.5,8.1c0.9,2.1,3,3.5,5.3,3.5
		C510.6,280.2,513.2,277.6,513.2,274.3z"/>
	<path class="st21" d="M708.4,237.5c0,0.1-0.1,0.2-0.1,0.2c0-0.1,0-0.2,0-0.3C708.3,237.5,708.4,237.5,708.4,237.5z"/>
	<path class="st21" d="M708.3,237.4c0,0.1,0,0.2,0,0.3c-1,2-3.1,3.4-5.4,3.4c-3.3,0-6-2.7-6-6s2.7-6,6-6c0.7,0,1.4,0.1,2,0.3
		c0.5,3.1,0.6,5,0.6,5.1c0.1,0.9,0.6,1.8,1.5,2.2C707.4,237,707.9,237.2,708.3,237.4z"/>
	<path class="st21" d="M693.4,315.8c3.3,0,6,2.7,6,6c0,3.3-2.7,6-6,6s-6-2.7-6-6C687.3,318.4,690,315.8,693.4,315.8z"/>
	<path class="st21" d="M655.1,263.8c3.3,0,6,2.7,6,6s-2.7,6-6,6s-6-2.7-6-6S651.7,263.8,655.1,263.8z"/>
	<path class="st21" d="M654.4,187.9c3.3,0,6,2.7,6,6c0,3.3-2.7,6-6,6s-6-2.7-6-6C648.4,190.6,651.1,187.9,654.4,187.9z"/>
	<path class="st22" d="M648.4,376.3c3.3,0,6,2.7,6,6c0,1.9-1,3.7-2.4,4.8c-2.7-0.2-5.4-0.6-8.3-1c-0.8-1-1.4-2.3-1.4-3.7
		C642.4,379,645.1,376.3,648.4,376.3z"/>
	<path class="st21" d="M641.1,308.2c3.3,0,6,2.7,6,6c0,3.3-2.7,6-6,6s-6-2.7-6-6C635.1,310.9,637.8,308.2,641.1,308.2z"/>
	<path class="st21" d="M624.8,163.1c-0.3,0.9-0.9,1.7-1.6,2.4c-2.5,2.2-6.3,1.9-8.5-0.5c-2.2-2.5-1.9-6.3,0.5-8.5
		C618.5,158.6,621.8,160.9,624.8,163.1z"/>
	<path class="st21" d="M607,234c3.3,0,6,2.7,6,6c0,3.3-2.7,6-6,6s-6-2.7-6-6C601,236.6,603.7,234,607,234z"/>
	<path class="st11" d="M610.2,150.1l-0.9,1.5c-13.1-4.9-31.8,24.7-39.9,38.9l-0.4-0.1c0.8-1.3,1.2-2.3,1.4-3.1
		c1.7-9.7,1.3-12.1,2.3-17.7c1.1-5.6,6.2-20.3,17.5-25.3C594.6,142.4,602.1,145.4,610.2,150.1z"/>
	<path class="st21" d="M593.8,332.2c3.3,0,6,2.7,6,6s-2.7,6-6,6c-3.3,0-6-2.7-6-6S590.5,332.2,593.8,332.2z"/>
	<path class="st21" d="M591.8,185.4c3.3,0,6,2.7,6,6s-2.7,6-6,6s-6-2.7-6-6S588.5,185.4,591.8,185.4z"/>
	<path class="st23" d="M580.5,202c8.1,7.2,6.2,15.3,6.2,15.3c-15.2,28-20,53-22.4,73.5c-0.6-0.2-1.3-0.4-2.1-0.4c-3.3,0-6,2.7-6,6
		c0,3.3,2.7,6,6,6c0.3,0,0.6,0,0.9-0.1c-2.6,29.5-2.8,46.7-31.6,45c-13.3-0.8-21.9-4-26.9-9c2.2-0.9,3.8-3,3.8-5.6c0-3.3-2.7-6-6-6
		c-1.2,0-2.3,0.3-3.2,0.9c-2.5-14.7,8.2-35.9,21.7-57.2C543.8,234.2,562.4,213.3,580.5,202z M561,240c0-3.3-2.7-6-6-6s-6,2.7-6,6
		c0,3.3,2.7,6,6,6S561,243.3,561,240z"/>
	<path class="st22" d="M581.7,397.7c0,1-0.3,1.9-0.7,2.7c-3.5-0.2-6.8-0.7-9.6-1.2c-0.5-0.1-1.1-0.2-1.6-0.3
		c-0.1-0.4-0.1-0.8-0.1-1.2c0-2.3,1.4-4.3,3.3-5.2c2.1,0.3,4.1,0.5,6.2,0.5C580.7,394,581.7,395.8,581.7,397.7z"/>
	<path class="st22" d="M575.7,391.9c1.3,0,2.5,0.4,3.5,1.1c-2.1,0-4.1-0.2-6.2-0.5C573.8,392.1,574.7,391.9,575.7,391.9z"/>
	<path class="st24" d="M708.1,238.8L708.1,238.8c0,0,0.1-0.3,0.2,0.8c0.1,0,0.1-1,0.1-1c0,0.1-0.1-0.4-0.1-0.3
		c0.5,8.1,0.4,23.6-5.4,43.5c15.1,16,20.8,39.7,6.9,65.2c-10,18.5-39.6,28.8-61.4,28.5c-12.5-0.1-22.5-3.7-24.7-11.3
		c-4.6,14.2-24,28.9-44.6,28.8c1.5,1,2.5,2.8,2.5,4.7c0,1-0.3,1.9-0.7,2.7c-3.5-0.2-6.8-0.7-9.6-1.2c-0.5-0.1-1.1-0.2-1.6-0.3
		c-0.1-0.4-0.1-0.8-0.1-1.2c0-2.3,1.4-4.3,3.3-5.2c-12-1.8-23.9-9.1-33.3-24.9c-7.3,50.8-53.6,4.3-53.6,4.3l-1.9,0.6
		c5.8,11.1,15.1,21.3,28.4,25.3c23.6,7.1,42.2-0.9,42.2-0.9s6,3.1,16.1,5c15.3,3,40.1,3.2,67.3-14.3c1.8,0.4,3.5,0.7,5.2,0.9
		c61.2,9.9,81.6-29.6,81.6-29.6c43.4-3.8,46.3-40.5,46.3-46.7C771.3,306.2,768.4,263.8,708.1,238.8z M652,387.1
		c-2.7-0.2-5.4-0.6-8.3-1c-0.8-1-1.4-2.3-1.4-3.7c0-3.3,2.7-6,6-6c3.3,0,6,2.7,6,6C654.4,384.3,653.5,386,652,387.1z M707.6,373.9
		c-1.3-1.1-2.1-2.7-2.1-4.5c0-3.3,2.7-6,6-6c2.1,0,3.9,1,5,2.6C714.3,368.4,711.3,371.2,707.6,373.9z M720.2,290.1c-3.3,0-6-2.7-6-6
		c0-3.3,2.7-6,6-6c3.3,0,6,2.7,6,6C726.3,287.4,723.6,290.1,720.2,290.1z M760,303.6c0-3.3,2.7-6,6-6c0.2,0,0.4,0.1,0.5,0.1
		c1.5,5.3,1.9,9.3,2,11.4c-0.8,0.4-1.6,0.6-2.5,0.6C762.7,309.7,760,307,760,303.6z"/>
	<path class="st21" d="M564.3,290.8c2.3,0.9,3.9,3,3.9,5.6c0,3-2.2,5.5-5.1,5.9C563.5,298.7,563.9,294.9,564.3,290.8z"/>
	<path class="st21" d="M564.3,290.8c-0.5,4.1-0.8,7.9-1.2,11.6c-0.3,0.1-0.6,0.1-0.9,0.1c-3.3,0-6-2.7-6-6c0-3.3,2.7-6,6-6
		C563,290.4,563.7,290.6,564.3,290.8z"/>
	<path class="st21" d="M554.9,234c3.3,0,6,2.7,6,6c0,3.3-2.7,6-6,6s-6-2.7-6-6C548.9,236.6,551.6,234,554.9,234z"/>
	<path class="st25" d="M523.7,377.2c3.3,0,6,2.7,6,6s-2.7,6-6,6c-3.3,0-6-2.7-6-6S520.4,377.2,523.7,377.2z"/>
	<path class="st21" d="M507.4,268.5c3.2,0.1,5.7,2.6,5.7,5.8c0,3.2-2.6,5.8-5.8,5.8c-2.4,0-4.4-1.5-5.3-3.5
		C503.6,274.1,505.4,271.4,507.4,268.5z"/>
	<path class="st21" d="M502.4,326.8c3.3,0,6,2.7,6,6c0,2.5-1.6,4.7-3.8,5.6c-3-3-4.7-6.6-5.4-10.7
		C500.1,327.1,501.2,326.8,502.4,326.8z"/>
	<path class="st21" d="M504.6,338.4c-0.7,0.3-1.5,0.4-2.2,0.4c-3.3,0-6-2.7-6-6c0-2.2,1.1-4,2.8-5.1
		C499.9,331.8,501.6,335.4,504.6,338.4z"/>
	<path class="st6" d="M569,190.4c-9,15.1-58.6,64.4-72.5,90.9c-13.2,25-20.3,49.1-19.5,66c0.4,7.4,2.7,16.6,7.2,25.2
		c5.8,11.1,15.1,21.3,28.4,25.3c23.6,7.1,42.2-0.9,42.2-0.9s6,3.1,16.1,5c15.3,3,40.1,3.2,67.3-14.3c1.8,0.4,3.5,0.7,5.2,0.9
		c61.2,9.9,81.6-29.6,81.6-29.6c43.4-3.8,46.3-42.6,46.3-48.8c0-6.2-2.8-46.9-63.1-75.8c0,0-2.1-31.1-19.4-42.9
		c-17.3-11.9-37.2-12.2-46.3-18.5c-5.6-3.8-19.6-15.4-32.2-22.8c-8.1-4.7-15.6-7.7-20-5.8c-11.2,5-16.4,19.7-17.5,25.3
		c-1,5.6-0.6,8-2.3,17.7C570.2,188,569.8,189.1,569,190.4z"/>
	<path d="M554.7,398.9c-0.3,0-0.5-0.1-0.8-0.2c-16.2-7.4-22.3-36.6-18.3-52c0.3-1,1.3-1.7,2.4-1.4c1,0.3,1.7,1.3,1.4,2.4
		c-3.6,13.8,2.3,41.1,16.1,47.4c1,0.4,1.4,1.6,1,2.6C556.2,398.5,555.5,398.9,554.7,398.9z"/>
	<path d="M638.1,389.7c-0.2,0-0.4,0-0.7-0.1c-17.8-6.4-15.7-26.5-15.7-26.7c0.1-1.1,1.1-1.8,2.2-1.7c1.1,0.1,1.8,1.1,1.7,2.2
		c-0.1,0.7-1.8,17.2,13.1,22.6c1,0.4,1.5,1.5,1.2,2.5C639.7,389.2,638.9,389.7,638.1,389.7z"/>
	<path d="M724.9,361c-0.3,0-0.6-0.1-0.9-0.2c-1-0.5-1.3-1.7-0.8-2.6c1.6-3.1,2.7-6.7,3.8-10.6c2.4-8.1,5.2-17.3,13.9-25.1
		c0.8-0.7,2-0.7,2.7,0.1c0.7,0.8,0.7,2-0.1,2.7c-7.9,7.1-10.4,15.3-12.8,23.4c-1.2,4-2.3,7.8-4.1,11.2
		C726.3,360.7,725.6,361,724.9,361z"/>
	<path d="M702.4,283.2c-0.2,0-0.4,0-0.6-0.1c-1-0.3-1.6-1.4-1.3-2.5c6.1-19,5.6-45.9,5.6-46.2c0-1.1,0.8-2,1.9-2c1,0,2,0.8,2,1.9
		c0,1.1,0.6,27.8-5.8,47.5C704,282.7,703.2,283.2,702.4,283.2z"/>
	<path class="st26" d="M570.4,187.3"/>
	<path d="M569.4,192c-0.5,0-1-0.2-1.3-0.5c-0.8-0.7-0.8-2-0.1-2.8c0.1-0.1,7.3-7.7,18.7-26.8c0.6-0.9,1.7-1.2,2.7-0.7
		c0.9,0.6,1.2,1.7,0.7,2.7c-11.7,19.5-18.9,27.2-19.2,27.5C570.5,191.8,569.9,192,569.4,192z"/>
	<path class="st11" d="M502.7,117.1c5,13.5,13.8,30.5,26.3,40.5c9.5,7.6,20.7,8.1,28.4,7.2c4-0.5,7.3-1.4,9.8-2.3
		c-11.6-0.9-29.6-6.3-39.7-13.2C520.2,144.2,510,129.1,502.7,117.1z"/>
	<path class="st11" d="M607.7,120.7c7.2-4.7,15.3-8,22.2-13.2C644.2,96.8,651.4,80,648,62.5c5,2.4,7.5,8.5,8.9,13.8
		c2.2,8.7,1.5,15.1-1.5,23.6c-3,8.5-7.8,16.2-13.2,23.5c-5.7,7.7-12.3,15.2-21,19.2c-6.8,3.1-22.8,6.8-28.4,0
		C587.5,136.2,603.2,123.7,607.7,120.7z"/>
	<path d="M608.5,150.7c-8.9,0-18.8-3.7-19.3-3.9c-0.7-0.3-1.3-0.8-1.5-1.5c-0.3-0.9-8.1-22.7-2.1-37.6c5-12.4,27.7-26,38.6-32.5
		c2.3-1.4,4.1-2.5,4.9-3c3.4-2.4,5.8-5.6,7.8-8.3c1.9-2.5,3.5-4.6,5.5-5.9c1.9-1.3,4.3-1.5,6.8-0.6c3.6,1.3,7.1,4.8,8.2,8.3
		c3.4,11.2,6.4,28.5-7.2,50.2c-9.9,15.7-23.4,33.9-39.9,35C609.7,150.6,609.1,150.7,608.5,150.7z M592.2,142.3
		c3,1,11.2,3.5,17.8,3.1c14.1-0.9,26.6-17.9,35.9-32.6c12.5-19.8,9.8-35.7,6.7-45.9c-0.6-1.9-2.9-4.2-4.9-5c-0.9-0.3-1.7-0.3-2.2,0
		c-1.3,0.9-2.7,2.7-4.2,4.7c-2.2,2.9-4.9,6.5-9,9.4c-1,0.7-2.8,1.8-5.3,3.3c-9.6,5.8-32.1,19.2-36.5,30l0,0
		C585.9,120.9,590.8,137.8,592.2,142.3z"/>
	<path class="st22" d="M648.4,95.9c-3.3,0-6,2.7-6,6c0,3.3,2.7,6,6,6c0.1,0,0.2,0,0.3,0c1.8-3.5,3.2-6.8,4.2-10
		C651.8,96.7,650.2,95.9,648.4,95.9z"/>
	<path class="st22" d="M619,134c-3.3,0-6,2.7-6,6c0,1.8,0.8,3.3,2,4.4c3.4-1.1,6.7-3.1,9.9-5.7C624.3,136.1,621.9,134,619,134z"/>
	<path d="M590.2,146.3c-0.1,0-0.2,0-0.3,0c-1.1-0.2-1.8-1.2-1.6-2.2c0.1-0.8,3.6-19.8,27.7-30.9c21-9.7,31-24.7,29.5-44.5
		c-0.1-1.1,0.7-2,1.8-2.1c1-0.1,2,0.7,2.1,1.8c1.6,21.6-9.1,37.9-31.8,48.3c-22.2,10.3-25.5,27.9-25.5,28
		C591.9,145.6,591.1,146.3,590.2,146.3z"/>
	<path d="M175.8,657.5c0,0-0.7,0.3-1.7,0.9c-1,0.6-2.2,1.5-3.1,2.6c-1,1.1-1.7,2.3-2.2,3.2c-0.2,0.5-0.4,0.9-0.5,1.1
		c-0.1,0.3-0.2,0.4-0.2,0.4l0,0.1c-0.4,1-1.5,1.5-2.5,1.2c-1-0.4-1.5-1.5-1.2-2.5c0.1-0.2,0.2-0.4,0.3-0.5c0,0,0.1-0.2,0.4-0.5
		c0.2-0.3,0.6-0.7,1-1.2c0.9-0.9,2.2-2,3.6-2.8c1.4-0.8,2.9-1.4,4.1-1.7C175,657.6,175.8,657.5,175.8,657.5z"/>
	<path d="M187.6,664.2c0,0-0.6,0.5-1.4,1.3c-0.8,0.8-1.7,2.1-2.3,3.4c-0.7,1.3-1,2.7-1.2,3.7c-0.1,0.5-0.1,0.9-0.1,1.2
		c0,0.3,0,0.5,0,0.5l0,0.1c-0.1,1.1-1,1.9-2.1,1.8c-1.1-0.1-1.9-1-1.8-2.1c0-0.2,0.1-0.4,0.1-0.6c0,0,0.1-0.2,0.2-0.6
		c0.1-0.4,0.4-0.9,0.7-1.4c0.6-1.1,1.6-2.6,2.7-3.7c1.2-1.2,2.5-2.1,3.5-2.7C186.9,664.4,187.6,664.2,187.6,664.2z"/>
	<path d="M103.1,626.3c0,0-0.7,0.3-1.7,0.9c-1,0.6-2.2,1.5-3.1,2.6c-1,1.1-1.7,2.3-2.2,3.2c-0.2,0.5-0.4,0.9-0.5,1.1
		c-0.1,0.3-0.2,0.4-0.2,0.4l0,0.1c-0.4,1-1.5,1.5-2.5,1.2c-1-0.4-1.5-1.5-1.2-2.5c0.1-0.2,0.2-0.4,0.3-0.5c0,0,0.1-0.2,0.4-0.5
		c0.2-0.3,0.6-0.7,1-1.2c0.9-0.9,2.2-2,3.6-2.8c1.4-0.8,2.9-1.4,4.1-1.7C102.3,626.4,103.1,626.3,103.1,626.3z"/>
	<path d="M112.2,632.9c0,0-0.6,0.5-1.4,1.4c-0.8,0.9-1.6,2.1-2.2,3.4c-0.6,1.3-1,2.7-1.1,3.7c-0.1,0.5-0.1,0.9-0.1,1.2
		c0,0.3,0,0.5,0,0.5l0,0.1c-0.1,1.1-1,1.9-2.1,1.8c-1.1-0.1-1.9-1-1.8-2.1c0-0.2,0.1-0.4,0.1-0.6c0,0,0.1-0.2,0.2-0.6
		c0.1-0.4,0.3-0.9,0.6-1.4c0.6-1.2,1.5-2.6,2.6-3.8c1.1-1.2,2.4-2.2,3.4-2.8C111.5,633.2,112.2,632.9,112.2,632.9z"/>
	<path d="M400.1,662.7c0,0,0.8,0.1,1.9,0.4c1.2,0.3,2.7,0.8,4.1,1.7c1.4,0.8,2.7,1.9,3.6,2.8c0.5,0.5,0.8,0.9,1,1.2
		c0.2,0.3,0.4,0.5,0.4,0.5c0.7,0.9,0.5,2.1-0.3,2.8c-0.9,0.7-2.1,0.5-2.8-0.3c-0.1-0.2-0.2-0.3-0.3-0.5l0-0.1c0,0-0.1-0.2-0.2-0.4
		c-0.1-0.3-0.2-0.7-0.5-1.1c-0.4-0.9-1.2-2.2-2.2-3.2c-1-1.1-2.2-2-3.1-2.6C400.9,663,400.1,662.7,400.1,662.7z"/>
	<path d="M409.9,656.2c0,0,0.8-0.1,2.1-0.1c1.3,0,3,0.3,4.6,0.9c1.7,0.5,3.3,1.4,4.4,2.1c0.6,0.4,1,0.7,1.3,1
		c0.3,0.3,0.5,0.4,0.5,0.4c0.9,0.7,1,2,0.3,2.9c-0.7,0.9-2,1-2.9,0.3c-0.2-0.1-0.3-0.3-0.4-0.5l-0.1-0.1c0,0-0.1-0.2-0.3-0.4
		c-0.2-0.3-0.4-0.7-0.8-1.1c-0.7-0.9-1.7-2-3-2.9c-1.3-0.9-2.7-1.7-3.8-2.1C410.8,656.4,409.9,656.2,409.9,656.2z"/>
	<path d="M485.8,631.5c0,0,0.8,0.1,1.9,0.4c1.2,0.3,2.7,0.8,4.1,1.7c1.4,0.8,2.7,1.9,3.6,2.8c0.5,0.5,0.8,0.9,1,1.2
		c0.2,0.3,0.4,0.5,0.4,0.5c0.7,0.9,0.5,2.1-0.3,2.8c-0.9,0.7-2.1,0.5-2.8-0.3c-0.1-0.2-0.2-0.3-0.3-0.5l0-0.1c0,0-0.1-0.2-0.2-0.4
		c-0.1-0.3-0.2-0.7-0.5-1.1c-0.4-0.9-1.2-2.2-2.2-3.2c-1-1.1-2.2-2-3.1-2.6C486.5,631.8,485.8,631.5,485.8,631.5z"/>
	<path d="M492.8,622.4c0,0,0.8-0.1,2-0.1c1.2,0,2.8,0.2,4.4,0.6c1.6,0.4,3.1,1.2,4.2,1.9c0.6,0.3,1,0.7,1.3,0.9
		c0.3,0.2,0.5,0.4,0.5,0.4c0.9,0.7,1,1.9,0.4,2.8c-0.7,0.9-1.9,1-2.8,0.4c-0.2-0.1-0.3-0.3-0.4-0.4l-0.1-0.1c0,0-0.1-0.1-0.3-0.4
		c-0.2-0.2-0.4-0.6-0.7-1c-0.7-0.8-1.7-1.8-2.9-2.6c-1.2-0.8-2.6-1.4-3.7-1.8C493.6,622.5,492.8,622.4,492.8,622.4z"/>
	<path class="st27" d="M139,82.6c16.1-7.1,39-10.4,48.3-4.6c-16.4,4.4-30.8,8.9-44.6,19.7c-13.8,10.8-35.8,38.4-35.8,38.4
		s-7-10.3-6.3-17.8c0.5-5.4,6.5-10.6,9.6-14.3C118,94.9,127.9,87.5,139,82.6z"/>
	<path class="st28" d="M313.4,29.5c6.5-3,14.7-3.6,21.8-4.1c9.2-0.7,18.5-1.4,27.7-0.9c9.2,0.5,21.3,2.6,25.7,5.5
		c-3-1.3-33.7,0.1-43.4,1.7c-28,4.7-41.5,12.1-44,13.7c0.4-2,3.5-8.4,4.5-9.5C308,33.2,310.2,31,313.4,29.5z"/>
	<path d="M291.9,166.9c-0.2,0.1-0.4,0.2-0.6,0.2c-1.4,0.1-2.8,0.5-4.1,1.1l0,0c-1,0.5-1.9,1.1-2.9,2c-0.3,0.2-0.6,0.4-1,0.3
		c-0.4,0-0.7-0.2-0.9-0.5c-0.2-0.2-0.4-0.4-0.5-0.7c-1.6-2.6-0.6-6,2.1-7.6c2.7-1.6,6.2-0.8,7.7,1.7c0.4,0.7,0.6,1.4,0.7,2.2
		c0,0.3-0.1,0.7-0.3,1C292.1,166.7,292,166.8,291.9,166.9z"/>
</g>
<circle class="st2" cx="983" cy="287" r="69"/>
<path class="st0" d="M1092.1,769.7c5.9-0.3,11.8,0.2,17.8,0.2c0.3,0,0.6,0,0.9,0.1c2.4-0.2,4.8-0.4,7.1-0.6
	c15.6-1.1,32-1.2,47.6,0.2c0.3,0,0.7,0.1,1,0.2c8.3-0.6,16.7-1.2,25-1.2c1,0,1.8,0.2,2.4,0.6c5.2-0.4,10.4-0.5,15.7,0.2
	c0.6,0.1,1,0.2,1.4,0.4c1.6,0.1,3.3,0.1,4.9,0.2c4.1-0.3,8.2-0.4,12.4-0.3c0.2,0,0.4,0,0.6,0c1.1,0,2.1,0,3.2,0
	c2.3-0.1,4.6-0.1,6.9-0.1c0.5,0,0.9,0.1,1.3,0.2c17.7,0.1,35.4,0.5,53,0.6c2.1,0,4.2,0,6.3-0.1c9.9-0.1,19.8-0.2,29.7-0.2
	c8.8-0.8,17.5-1.4,26.3-1.3c3.9,0,7.8,0.2,11.3,1.1c-0.1-7.9-0.2-15.9-0.2-23.8c0-10.6-0.1-21.2,0-31.8c0-3.2,0-6.5,0-9.7
	c-0.1-0.8-0.1-1.5-0.2-2.3c-0.5-6.8-0.2-13.4,0.4-20.1c0.1-6.9,0.3-13.7,0.5-20.6c-2.6-17.7-1.4-35.5,0.2-53.3
	c-0.5-4.4-1.2-8.8-1.9-13.3C1261.2,568.3,1087.3,603.8,1092.1,769.7z"/>
<circle class="st3" cx="1308" cy="587" r="36"/>
<circle class="st2" cx="1092" cy="672" r="69"/>
<circle class="st3" cx="71.5" cy="505.5" r="61.5"/>
<g>
	<path class="st4" d="M1315.5,649.2c0.7-12.5,2.1-23.7,3.7-39.5l0.6-0.1c1.1,12.8-2,27.9-1.8,42.9c0.2,17.1,2.2,28.6,1.5,30.5
		c-1,0.9-8.8,1.6-9.6,1c-0.8-0.6-1.9-2.8-2-3.9c0-0.2,0-0.4,0.1-0.6l0.1,0c0.8,2.8,6.8,2,8.1,0.2
		C1317.3,678,1314.9,661.6,1315.5,649.2z"/>
	<path class="st4" d="M1302,547.5c3.3,4.2,4.2,9.8,4.7,13.5c1,6.9-0.8,18-0.8,18l-0.1,0.1c-1.1-0.9-2.3-1.8-3.7-2.7
		c-1.3-0.9-2.9-1.6-4.6-2.2l2-0.1C1301.8,568.3,1306.2,561.8,1302,547.5z"/>
	<path class="st21" d="M1275.2,557.2c-2-7,4.2-16.5,14.8-15.7c5.8,0.5,9.6,2.9,12,6c4.2,14.4-0.2,20.8-2.4,26.5l-2,0.1
		c-1.2-0.4-2.5-0.8-3.9-1.1l0.1-0.2c0.5-1.5,1.3-5.5,1.6-8.4l0-0.1c1.3-0.8,2.1-1.7,2.5-2.4c-10.1,5.4-20.9-3-22.7-4.4
		C1275.2,557.3,1275.2,557.2,1275.2,557.2z M1295.9,560.1c0-5.2-2.8-8.9-7.2-7.9c-4.3,1-5.5,8.6,1.8,8.7
		C1292.3,561,1294.7,560.3,1295.9,560.1L1295.9,560.1z"/>
	<path class="st4" d="M1275.2,557.4c1.8,1.5,12.6,9.8,22.7,4.4c-0.4,0.7-1.2,1.6-2.5,2.4c-0.1,0.1-0.1,0.1-0.2,0.1
		c-1.9,1.2-4.7,2.2-7.7,2C1282,566,1276.9,562.8,1275.2,557.4z"/>
	<path class="st7" d="M1281.5,571.3l0-0.3c4.3,0.4,8.5,1,12.2,1.9c1.4,0.3,2.6,0.7,3.9,1.1c1.7,0.6,3.3,1.3,4.6,2.2
		c1.3,0.9,2.5,1.8,3.7,2.7c6.2,5.1,9.6,11,11.9,19.8c-1.4,0.7-9.1,4.1-18,3.9c-9.9-0.2-17.3-5.4-19.6-12.6
		C1277.9,582.9,1283.1,576.8,1281.5,571.3z"/>
	<path class="st21" d="M1261.3,642.3c2.2-3.4,10.8-4.9,12.5-4c1.2,0.6,2.8,6.6,3.4,10.4c0.3,1.6,0.4,2.8,0.2,3.1
		c-0.5,1.1-4.6,5.7-6.8,10c-2.2,4.2-4.7,12.2-4.9,12.7c-0.3,0.5-2,1.4-3.9,1.2c-2-0.1-4.8-0.6-6.2-2.5c0.4-0.5,2.8-1.7,5.5-1.5
		c0,0,5.7-9.1,6.7-16.9c-2.8-2.2-5.2-7.6-7-12.5L1261.3,642.3z"/>
	<path class="st21" d="M1287.3,621.2c-8.1,2.2-21.4,8.3-29.1,11.9C1259.3,631.6,1266.6,622,1287.3,621.2z"/>
	<path class="st4" d="M1288,621.2c-0.2,0-0.4,0-0.7,0c-8.1,2.2-21.4,8.3-29.1,11.9c-0.1,0.1-0.1,0.2-0.1,0.2s1,4.3,2.7,9.1l0.4-0.1
		c2.2-3.4,10.8-4.9,12.5-4c1.2,0.6,2.8,6.6,3.4,10.4c0.3,1.6,0.4,2.8,0.2,3.1c-0.5,1.1-4.6,5.7-6.8,10c-2.2,4.2-4.7,12.2-4.9,12.7
		c-0.3,0.5-2,1.4-3.9,1.2c-2-0.1-4.8-0.6-6.2-2.5c-0.4,0.5-0.3,4.4,0.5,5c0.8,0.6,5.7,1.4,6.9,1.1c1.2-0.3,2.5-2.1,4.6-3.6
		c2.2-8.8,8.2-19.8,12.2-23.7c-0.3-1.2-0.5-2.5-0.7-3.7C1277.4,637.2,1280.4,627,1288,621.2z"/>
	<path class="st4" d="M1251.8,638.7c-1.2,5.2-3.5,16.4-3.9,22.9c-0.5,8.7-0.9,17.9-1.4,18.7c-1.4,2.2-1.3,5.6-2.9,6.1
		c-3,1-8.1,0.4-8.5-0.5c-0.5-1.3-0.5-2.4-0.1-3.5c2.2,1.6,5.4,2.2,7.7,0.7c4.6-2.9-1.2-9.5,8.9-44.4L1251.8,638.7z"/>
	<path class="st29" d="M1233.4,515.7l-0.3,0.2c0,4.5-1.4,8.3-3.6,11.3c-3.9,5.5-10.3,8-14.5,6.1c2.8,5.9,7.9,12.2,8.4,12
		c0.2-0.1,0.3-0.4,0.5-0.8c0,0,0,0,0,0c0.5-0.9,4.8-7.8,10.3-4.6l0.1,0c-1-3.7-1.9-7-2.4-8.9c1.8-2.5,3.3-5.2,3.8-7.3
		C1236.6,520.8,1235.2,517.8,1233.4,515.7z"/>
	<path class="st4" d="M1208.7,675.2c0.6-1,1.2-11.4,1.6-19.6c0.4,0,0.7,0,1.1-0.1c0.3,9.9,0.4,20-0.2,20.6c-2,2.3-3,5-4.7,5.8
		c-1.6,0.8-6.8,0.4-7.9-0.4c-0.7-0.5-0.7-2.2-0.5-3.5l0.8,0.1c0,0,2.3,1,5,0.4C1206.6,678,1207.6,676.8,1208.7,675.2z"/>
	<path class="st7" d="M1237.7,637.4c0,0-11.3,2.7-16.3,2.4c-5-0.2-10.6-3.6-10.6-3.6s0.4,9.6,0.7,19.4c-0.4,0.1-0.8,0.1-1.1,0.1
		c-5,0.1-7.1-4.9-7.1-4.9l-0.5,0.1c-0.4-3.6-1-6.9-1.9-9.6c-1-3-2.3-6-3.7-9l0.1-0.1c0,0.1-0.7-5.6,2.7-9.6
		c2.6-3.2,7.9-6.9,14.5-7.1c6.5-0.2,21.7,5.9,23.8,21.9L1237.7,637.4z"/>
	<path class="st28" d="M1233.4,515.7l-0.3,0.2c-9.2-2.7-25.4-2.6-25.4-2.6l-0.1-0.1c0.4-0.5,0.9-0.8,1.4-1
		c2.4-0.9,16.9-0.4,19.8,0.2C1230.1,512.7,1231.9,513.9,1233.4,515.7z"/>
	<path class="st8" d="M1206.3,515.7l4.4,0.2c-1.4,0.1-2.9,1.3-3,1.8l-2.9,0.2c0,0,0.4-1.1,1.1-2.3
		C1206.2,515.6,1206.3,515.7,1206.3,515.7z"/>
	<path class="st8" d="M1234.4,539.9l-0.1,0c-5.5-3.2-9.8,3.7-10.3,4.6c0,0,0,0,0,0c-0.1,0.4-0.3,0.7-0.5,0.8
		c-0.5,0.2-5.6-6.1-8.4-12c4.2,1.9,10.5-0.6,14.5-6.1c2.1-3,3.6-6.8,3.6-11.3c-9.2-2.7-25.4-2.6-25.4-2.6l-0.1-0.1
		c-0.7,0.7-1.2,1.5-1.7,2.3c0.2,0.1,0.4,0.1,0.4,0.1l4.4,0.2c0.2,0,0.4,0,0.6,0l-0.6,0c-1.4,0.1-2.9,1.3-3,1.8l-2.9,0.2
		c0,0,0.4-1.1,1.1-2.3c-0.6-0.2-2.1-0.5-4-0.7l0,0.3c0,0-0.9,5.7,1.3,11.5c2.2,5.7,9.1,10,11.7,17c2.6,7,11.5,9.5,20.1-1.2l0.1,0
		C1234.9,541.5,1234.7,540.7,1234.4,539.9z"/>
	<path class="st21" d="M1204,678.6c-2.6,0.6-5-0.4-5-0.4l-0.8-0.1c0.1-0.7,0.3-1.2,0.5-1.5c1.1-1.5,4.4-2.1,4.4-2.1
		s0.7-12.8-0.5-23.7l0.5-0.1c0,0,2.1,4.9,7.1,4.9c-0.4,8.2-1,18.6-1.6,19.6C1207.6,676.8,1206.6,678,1204,678.6z"/>
	<path class="st30" d="M1202.5,556.1c-3.5,2.3-5.4,3.4-7.9,5.2l0,0c5.2-5.5,8.3-10.3,9.7-9.7
		C1206.3,552.3,1204.6,554.7,1202.5,556.1z"/>
	<path class="st4" d="M1193.8,585.6c0.8-6.3,0.3-14-2.1-14.2c0,0,14.8-3.4,20.2-6.5c-15.8,9.9-17.9,20.8-17.9,20.8L1193.8,585.6z"/>
	<path class="st8" d="M1190.8,529.7c5.8-1,9.8,3.4,10.4,6.2c0.8,3.6-1,7.1-3,10.4s-6.8,8-11.1,7.6c-3.9-0.4-5.6-4.3-5.6-6.9
		s2.1-4.9,3.4-8.1C1186.1,535.6,1185.9,530.5,1190.8,529.7z"/>
	<path class="st7" d="M1189.9,515.7c-6.8,2.1-12.4,15.7-17.4,24.4c-1.8-3.1,0.1-8.9-1.7-19c-0.2-1.1,0.3-2.2,1.1-2.8
		C1171.9,518.3,1183.3,513.2,1189.9,515.7z"/>
	<path class="st31" d="M1189.9,515.7c-6.6-2.4-17.9,2.6-17.9,2.6c3.7-2.8,8.7-5.4,11.3-5.8c2.9-0.5,8,0.2,10.2,2.2l0,0.2
		C1192.2,515.1,1191,515.3,1189.9,515.7z"/>
	<path class="st15" d="M1160.2,561.7c-0.5-0.1-0.9-0.1-1.4-0.2c0-0.1,0-0.3,0-0.5C1159.3,561.3,1159.8,561.5,1160.2,561.7z"/>
	<path class="st5" d="M1201.2,535.9c-0.6-2.8-4.6-7.1-10.4-6.2c-4.9,0.8-4.7,5.9-6,9.1c-1.4,3.2-3.4,5.5-3.4,8.1s1.7,6.5,5.6,6.9
		c4.4,0.4,9.1-4.3,11.1-7.6S1201.9,539.4,1201.2,535.9z M1202.5,556.1c2.1-1.4,3.8-3.7,1.8-4.5c-1.4-0.6-4.6,4.2-9.7,9.7l0,0
		C1197.1,559.4,1199,558.3,1202.5,556.1z M1258.3,633.1c-3.5,1.7-5.8,2.8-5.8,2.8s-0.3,1.1-0.6,2.8l-0.2,0
		c-10,34.9-4.3,41.5-8.9,44.4c-2.4,1.5-5.5,0.9-7.7-0.7c0.2-0.5,0.4-1.1,0.7-1.5c1-1.5,3.2-1.2,3.5-2.2c2.7-12.3-1.6-41.3-1.6-41.3
		l0.5-0.1c-2.2-16-17.3-22.1-23.8-21.9c-6.6,0.2-11.8,3.9-14.5,7.1c-3.3,4-2.6,9.7-2.7,9.6l-0.1,0.1c-3.5-7.7-7.2-15.2-7.1-21.4
		c0-8.6,2.8-18,3.7-24.4c0-0.3,0.1-0.6,0.1-0.8l0.3,0c0,0,2-10.9,17.9-20.8c-5.4,3.2-20.2,6.5-20.2,6.5
		c-2.5-0.2-19.6,10.4-23.7,10.9c-4.1,0.5-7-2.1-7-2.1s6.1-0.3,18.7-7.4l-0.1-0.2c-20,10.9-25.1,0.3-25.1,0.3l-0.1-0.2
		c1.8-0.9,3.6-2.1,4.9-3.2c0.3-0.3,0.5-0.5,0.7-0.8l0,0c1.9-2.3,2.3-5.5,0.1-6.9c-0.4-0.2-0.8-0.4-1.4-0.6c-2.1-0.8-5.4-1.3-8.2-1.3
		c3-1.8,15.4-9.7,20.2-16.9c0.6-0.9,1.1-1.8,1.7-2.8c5-8.7,10.5-22.3,17.4-24.4c1.2-0.4,2.4-0.6,3.6-0.8c3.1-0.4,6.2-0.3,8.5,0
		l0,0.3c0,0-0.9,5.7,1.3,11.5c2.2,5.7,9.1,10,11.7,17c2.6,7,11.5,9.5,20.1-1.2l0.1,0c1.8,6.4,4,13.1,5.7,15.5
		c3.4,4.8,7.6,8.8,19.3,11.2c5.5,1.1,13.6,1.4,21.5,2.2l0,0.3c1.6,5.5-3.6,11.6-1.3,18.7c2.3,7.2,9.7,12.4,19.6,12.6
		c8.9,0.2,16.6-3.2,18-3.9c0.5,1.8,0.9,3.7,1.3,5.7c0.3,1.7,0.6,3.4,0.7,5.1l-0.6,0.1c-1.6,15.8-3,27.1-3.7,39.5
		c-0.6,12.5,1.8,28.8,0.5,30.5c-1.3,1.7-7.2,2.5-8.1-0.2l-0.1,0c0.3-0.7,1.2-1.4,2.9-3.5c0.5-3.2-1.2-16.9-5-30.8
		c-6.9-5.5-12.5-18.6-14-24.7c-1.1,0.1-2.6,0.4-4.4,0.8"/>
	<path class="st4" d="M1179.8,572.8c-12.7,7.1-18.7,7.4-18.7,7.4s-3.3,0.9-6.3-0.2c-3.1-1.3-4.7-4.1-4.8-5.7c0-0.1,0-0.2,0-0.3
		c1,0.1,2.5-0.4,4.1-1.1c0.2-0.1,0.3-0.1,0.5-0.2l0.1,0.2c0,0,5.1,10.6,25.1-0.3L1179.8,572.8z"/>
	<path d="M1160.1,568.6c-0.2,0.3-0.5,0.6-0.7,0.8c-1.2,1.2-3.1,2.4-4.9,3.2c-0.2,0.1-0.3,0.2-0.5,0.2c0.1-0.6,0.4-2.1,1.1-2.8
		c0.1-0.1,0.1-0.1,0.2-0.1C1156.3,569.4,1158.6,569.4,1160.1,568.6z"/>
	<path class="st27" d="M1150.6,559.8c-2.3,0-4.3,0.3-5,1.1c-1,1.1-1.4,2.5-1.4,3.7c0.1-0.1,1.7-1.9,5.8-2.7c2.2-0.5,5.1-0.7,8.9-0.3
		c0-0.1,0-0.3,0-0.5C1156.7,560.3,1153.4,559.8,1150.6,559.8z"/>
	<path class="st30" d="M1160.2,561.7c-0.5-0.1-0.9-0.1-1.4-0.2c-0.1,4.2-2.9,6.5-5.8,7.8c-1.1,0.5-2.2,0.8-3.2,1
		c-0.8,0.2-1.5,0.3-2.1,0.3c0.1,0.9-0.1,1.8-0.1,1.8l0,0c0.8,0.8,1.5,1.4,2.2,1.5c0,0,0.1,0,0.1,0c1,0.1,2.5-0.4,4.1-1.1
		c0.1-0.6,0.4-2.1,1.1-2.8c0.1-0.1,0.1-0.1,0.2-0.1c1-0.6,3.4-0.6,4.8-1.4l0,0C1161.9,566.3,1162.4,563.1,1160.2,561.7z"/>
	<path d="M1147.7,570.6c0.1,0.9-0.1,1.8-0.1,1.8l0,0c-0.5-0.5-0.9-1.1-1.3-1.7C1146.6,570.7,1147.1,570.7,1147.7,570.6z"/>
	<path d="M1144.8,567.8c0.9,0.9,1.7,0.7,2.5,1.5c0.3,0.3,0.4,0.8,0.4,1.3c-0.6,0.1-1.1,0.1-1.4,0.1c-0.7-1-1.3-2.1-1.6-2.9
		L1144.8,567.8z"/>
	<path class="st16" d="M1149.9,561.8c-4.1,0.9-5.6,2.6-5.8,2.7c0,0,0,0,0,0c0,0.9,0.1,1.7,0.2,2.3c0,0.2,0.2,0.6,0.3,0.9l0.1,0
		c0.9,0.9,1.7,0.7,2.5,1.5c0.3,0.3,0.4,0.8,0.4,1.3c0.6-0.1,1.3-0.2,2.1-0.3c1-0.2,2.1-0.5,3.2-1c2.9-1.2,5.7-3.5,5.8-7.8
		C1155,561.1,1152.1,561.4,1149.9,561.8z"/>
	<path class="st32" d="M1258.3,633.1c-0.1,0.1-0.1,0.2-0.1,0.2s1,4.3,2.7,9.1c1.7,4.8,4.2,10.2,7,12.5c-1,7.8-6.7,16.9-6.7,16.9
		c-2.8-0.3-5.1,0.9-5.5,1.5c-0.4,0.5-0.3,4.4,0.5,5c0.8,0.6,5.7,1.4,6.9,1.1c1.2-0.3,2.5-2.1,4.6-3.6c2.2-8.8,8.2-19.8,12.2-23.7
		c-0.3-1.2-0.5-2.5-0.7-3.7c-1.7-11.2,1.3-21.4,8.9-27.2c-0.2,0-0.4,0-0.7,0"/>
	<path class="st32" d="M1149.9,574c0,0.1,0,0.2,0,0.3c0.1,1.6,1.7,4.4,4.8,5.7c3.1,1.1,6.3,0.2,6.3,0.2s2.9,2.6,7,2.1
		c4.1-0.5,21.2-11.2,23.7-10.9c2.4,0.2,2.9,7.9,2.1,14.2c0,0.3-0.1,0.6-0.1,0.8c-0.9,6.4-3.7,15.8-3.7,24.4c0,6.2,3.7,13.7,7.1,21.4
		c1.3,3,2.6,6,3.7,9c0.9,2.7,1.5,6,1.9,9.6c1.2,10.9,0.5,23.7,0.5,23.7s-3.3,0.7-4.4,2.1c-0.2,0.2-0.4,0.8-0.5,1.5
		c-0.2,1.3-0.2,3,0.5,3.5c1,0.7,6.2,1.2,7.9,0.4c1.6-0.9,2.7-3.5,4.7-5.8c0.6-0.7,0.5-10.7,0.2-20.6c-0.3-9.8-0.7-19.4-0.7-19.4
		s5.6,3.4,10.6,3.6c5,0.2,16.3-2.4,16.3-2.4s4.4,29,1.6,41.3c-0.3,1-2.6,0.6-3.5,2.2c-0.3,0.5-0.5,1-0.7,1.5c-0.3,1-0.4,2.2,0.1,3.5
		c0.4,0.9,5.4,1.5,8.5,0.5c1.5-0.5,1.4-3.9,2.9-6.1c0.5-0.7,0.9-9.9,1.4-18.7c0.4-6.5,2.7-17.7,3.9-22.9c0.4-1.8,0.6-2.8,0.6-2.8
		s2.3-1.1,5.8-2.8c7.6-3.6,20.9-9.6,29.1-11.9c1.7-0.5,3.2-0.8,4.4-0.8c1.6,6.1,7.2,19.2,14,24.7c3.7,13.9,5.5,27.5,5,30.8
		c-1.7,2.1-2.6,2.8-2.9,3.5c-0.1,0.2-0.1,0.4-0.1,0.6c0.1,1.1,1.2,3.3,2,3.9c0.8,0.6,8.7-0.1,9.6-1c0.7-1.9-1.3-13.4-1.5-30.5
		c-0.2-15,2.9-30.1,1.8-42.9c-0.1-1.8-0.4-3.5-0.7-5.1c-0.4-2-0.8-3.9-1.3-5.7c-2.3-8.8-5.7-14.8-11.9-19.8
		c-1.1-0.9-2.3-1.8-3.7-2.7c-1.3-0.9-2.9-1.6-4.6-2.2c-1.2-0.4-2.5-0.8-3.9-1.1c-3.7-0.9-7.9-1.4-12.2-1.9c-7.9-0.8-16-1.1-21.5-2.2
		c-11.7-2.3-15.8-6.4-19.3-11.2c-1.7-2.3-3.9-9.1-5.7-15.5c-0.2-0.8-0.5-1.6-0.7-2.4c-1-3.7-1.9-7-2.4-8.9"/>
	<path class="st32" d="M1206,515.6c-0.6-0.2-2.1-0.5-4-0.7c-2.4-0.3-5.4-0.4-8.5,0c-1.2,0.2-2.4,0.4-3.6,0.8
		c-6.8,2.1-12.4,15.7-17.4,24.4c-0.6,1-1.1,1.9-1.7,2.8c-4.8,7.2-17.2,15.1-20.2,16.9"/>
	<line class="st32" x1="1211.3" y1="515.9" x2="1210.7" y2="515.9"/>
	<path class="st14" d="M1295.5,564.3c-0.4,2.9-1.2,6.9-1.6,8.4"/>
	<path class="st14" d="M1306,578.9c0,0,1.7-11,0.8-18c-0.5-3.7-1.4-9.2-4.7-13.5c-2.4-3.1-6.2-5.5-12-6
		c-10.6-0.8-16.9,8.6-14.8,15.7c0,0.1,0,0.1,0.1,0.2c1.7,5.4,6.7,8.6,12.2,9c3,0.2,5.8-0.8,7.7-2c0.1,0,0.1-0.1,0.2-0.1
		c1.3-0.8,2.1-1.7,2.5-2.4c0.2-0.3,0.2-0.6,0.1-0.8c-0.5-0.9-1.4-1-2.6-0.9c-1.5,0.2-3.5,0.9-5.3,0.8c-7.3-0.1-6-7.8-1.6-8.7
		c4.4-1,7.1,2.7,7,7.9"/>
	<path d="M1234,515.2c-1.5-1.8-3.5-3.2-5-3.5c-2.8-0.6-17.5-1.2-20.2-0.2c-0.6,0.2-1.2,0.6-1.7,1.2c-0.6,0.6-1.2,1.4-1.8,2.5
		c-0.7,1.2-1.1,2.3-1.1,2.4c-0.1,0.4,0.1,0.8,0.5,1c0.4,0.1,0.9-0.1,1-0.4c0,0,0.4-1,1-2.2c0.5-1,1.1-1.7,1.6-2.2
		c0.4-0.4,0.8-0.7,1.1-0.8c2.2-0.8,16.6-0.4,19.3,0.2c1,0.2,2.6,1.2,4.1,3c1,1.1,3.1,4.1,2.3,7.4c-0.3,1.4-1.3,3.4-2.8,5.7
		c-5.3,7.6-9,14.9-9,15l0,0c-1.4-1.5-5.1-6.4-7.5-11.2c-0.8-1.7-1.3-3.2-1.6-4.4c-0.7-3-0.7-5.8-0.8-8.1c-0.1-2.9-0.1-4.7-1.4-5.2
		c-0.1-0.1-0.3-0.1-0.5-0.1c-0.3-0.1-0.6-0.1-0.9,0c-1.5,0.1-3.5,1.4-3.7,2.4c-0.1,0.4,0.2,0.8,0.7,0.9c0.4,0.1,0.8-0.2,0.9-0.5
		c0.2-0.3,1.3-1.1,2.3-1.2c0.1,0,0.3,0,0.4,0c0.1,0,0.1,0,0.2,0c0.4,0.3,0.4,2.3,0.5,3.9c0.1,2.3,0.2,5.2,0.9,8.3
		c0.3,1.4,0.9,2.9,1.7,4.7c1.2,2.6,3.1,5.7,5.1,8.4c2.5,3.5,3.4,4.1,3.9,4.1c0.1,0,0.2,0,0.4-0.1c0.5-0.2,0.7-0.7,0.9-1.2
		c0.3-0.6,3.4-6.7,7.9-13.3c0,0,0.1-0.1,0.1-0.1c0.3-0.5,0.6-0.9,0.9-1.4c0,0,0,0,0,0c0,0,0,0,0,0c1.6-2.5,2.6-4.5,3-6.1
		C1237.3,521.1,1236.3,517.9,1234,515.2z"/>
	<path class="st14" d="M1193.4,514.7c-2.2-2-7.2-2.6-10.2-2.2c-2.6,0.4-7.6,3-11.3,5.8c-0.9,0.7-1.3,1.8-1.1,2.8
		c1.8,10.1-0.1,15.9,1.7,19c0,0,0,0.1,0.1,0.1"/>
	<path class="st32" d="M1150.6,559.8c-2.3,0-4.3,0.3-5,1.1c-1,1.1-1.4,2.5-1.4,3.7"/>
	<path class="st14" d="M1160.1,568.6c1.9-2.3,2.3-5.5,0.1-6.9c-0.4-0.2-0.8-0.4-1.4-0.6c-2.1-0.8-5.4-1.3-8.2-1.3"/>
	<path class="st14" d="M1144.6,567.8c0.4,0.8,0.9,1.9,1.6,2.9c0.4,0.6,0.9,1.2,1.3,1.7c0.8,0.8,1.5,1.4,2.2,1.5c0,0,0.1,0,0.1,0
		c1,0.1,2.5-0.4,4.1-1.1c0.2-0.1,0.3-0.1,0.5-0.2c1.8-0.9,3.6-2.1,4.9-3.2c0.3-0.3,0.5-0.5,0.7-0.8"/>
	<path class="st32" d="M1144.1,564.6c0,0.9,0.1,1.7,0.2,2.3c0,0.2,0.2,0.6,0.3,0.9"/>
	<polyline class="st14" points="1160.1,568.6 1160.1,568.6 1160.1,568.6 	"/>
	<path class="st26" d="M1154,573.1c0,0,0-0.1,0-0.2c0.1-0.6,0.4-2.1,1.1-2.8c0.1-0.1,0.1-0.1,0.2-0.1c1-0.6,3.4-0.6,4.8-1.4"/>
	<path class="st26" d="M1144.8,567.8c0.9,0.9,1.7,0.7,2.5,1.5c0.3,0.3,0.4,0.8,0.4,1.3c0.1,0.9-0.1,1.8-0.1,1.8"/>
	<path class="st14" d="M1161.1,580.2c0,0,6.1-0.3,18.7-7.4c0.8-0.4,1.5-0.9,2.3-1.3c5-2.9,9.1-6.7,12.4-10.2
		c5.2-5.5,8.3-10.3,9.7-9.7c2,0.8,0.3,3.2-1.8,4.5c-3.5,2.3-5.4,3.4-7.9,5.2"/>
	<path class="st32" d="M1144.1,564.6C1144.1,564.6,1144.1,564.6,1144.1,564.6"/>
	<path d="M1310.5,676.7c-0.2,0-0.4-0.1-0.5-0.3c-0.2-0.3,0-0.6,0.2-0.8c0.1-0.1,2.9-1.5,7-0.4c0.3,0.1,0.5,0.4,0.4,0.7
		c-0.1,0.3-0.4,0.5-0.7,0.4c-3.6-0.9-6.1,0.3-6.1,0.3C1310.7,676.7,1310.6,676.7,1310.5,676.7z"/>
	<path d="M1264,673.8c-0.1,0-0.3,0-0.4-0.1c-1.5-1.3-3.7-1.1-3.7-1.1c-0.3,0-0.6-0.2-0.6-0.5c0-0.3,0.2-0.6,0.5-0.6
		c0.1,0,2.7-0.2,4.6,1.4c0.2,0.2,0.3,0.6,0,0.8C1264.3,673.8,1264.2,673.8,1264,673.8z"/>
	<path d="M1237.6,680.3c-0.2,0-0.4-0.1-0.5-0.3c-0.1-0.3,0-0.6,0.2-0.8c0.1-0.1,2.7-1.3,7.1-0.2c0.3,0.1,0.5,0.4,0.4,0.7
		c-0.1,0.3-0.4,0.5-0.7,0.4c-3.9-1-6.2,0.1-6.2,0.1C1237.8,680.3,1237.7,680.3,1237.6,680.3z"/>
	<path d="M1207.2,675.7c-0.1,0-0.1,0-0.2,0c-1.7-0.7-4.7-0.3-4.7-0.3c-0.3,0-0.6-0.2-0.7-0.5c0-0.3,0.2-0.6,0.5-0.6
		c0.1,0,3.3-0.4,5.3,0.4c0.3,0.1,0.4,0.4,0.3,0.7C1207.6,675.6,1207.4,675.7,1207.2,675.7z"/>
	<path d="M1212.1,637.4c-0.1,0-0.2,0-0.3-0.1c-3.3-1.9-6.4-5.6-6.6-5.7c-0.2-0.2-0.2-0.6,0.1-0.8c0.2-0.2,0.6-0.2,0.8,0.1
		c0,0,3.2,3.6,6.3,5.5c0.3,0.2,0.4,0.5,0.2,0.8C1212.5,637.3,1212.3,637.4,1212.1,637.4z"/>
	<path d="M1252.1,637.3c-0.1,0-0.1,0-0.2,0c-0.3-0.1-0.5-0.4-0.4-0.7c1.4-5,1.6-13.3,1.6-13.3c0-0.3,0.3-0.6,0.6-0.6
		c0.3,0,0.6,0.3,0.6,0.6c0,0.3-0.2,8.5-1.6,13.6C1252.6,637.1,1252.4,637.3,1252.1,637.3z"/>
	<path d="M1292.3,622.6c-0.3,0-0.5-0.2-0.6-0.4c-0.9-3.2-1.9-7.5-1.7-11.9c0-0.3,0.3-0.6,0.6-0.5c0.3,0,0.6,0.3,0.6,0.6
		c-0.2,4.3,0.8,8.5,1.7,11.6c0.1,0.3-0.1,0.6-0.4,0.7C1292.4,622.5,1292.4,622.6,1292.3,622.6z"/>
	<path d="M1190.4,572.2c-0.2,0-0.5-0.1-0.5-0.4c-0.1-0.3,0-0.6,0.3-0.7c3.2-1.2,6.5-2.1,9.7-2.9c7.7-2,15.1-3.8,18.3-10.9
		c0.1-0.3,0.5-0.4,0.8-0.3c0.3,0.1,0.4,0.5,0.3,0.7c-3.4,7.6-11,9.5-19,11.5c-3.2,0.8-6.5,1.6-9.6,2.9
		C1190.6,572.2,1190.5,572.2,1190.4,572.2z"/>
	<path class="st33" d="M1178.2,544.2c-0.9,0-1.6-0.7-1.6-1.6c0-0.9,0.7-1.6,1.6-1.6c0.9,0,1.6,0.7,1.6,1.6
		C1179.8,543.5,1179.1,544.2,1178.2,544.2z"/>
	<path class="st33" d="M1186.4,542.6c-0.9,0-1.6,0.7-1.6,1.6c0,0.9,0.7,1.6,1.6,1.6s1.6-0.7,1.6-1.6
		C1188.1,543.3,1187.3,542.6,1186.4,542.6z"/>
	<path d="M1201.4,679c0,0-0.1,0.2-0.3,0.4c-0.1,0.3-0.3,0.6-0.4,1c-0.1,0.4-0.1,0.7-0.1,1c0,0.1,0,0.2,0,0.3c0,0.1,0,0.1,0,0.1l0,0
		c0.1,0.3-0.1,0.5-0.4,0.6c-0.3,0.1-0.6-0.1-0.6-0.4c0-0.1,0-0.1,0-0.2c0,0,0-0.1,0-0.2c0-0.1,0-0.2,0.1-0.4
		c0.1-0.3,0.2-0.7,0.5-1.1c0.2-0.4,0.5-0.7,0.7-0.9C1201.3,679.1,1201.4,679,1201.4,679z"/>
	<path d="M1204.6,679c0,0-0.1,0.2-0.3,0.4c-0.1,0.3-0.3,0.6-0.4,1c-0.1,0.4-0.1,0.7-0.1,1c0,0.1,0,0.2,0,0.3c0,0.1,0,0.1,0,0.1l0,0
		c0.1,0.3-0.1,0.5-0.4,0.6c-0.3,0.1-0.6-0.1-0.6-0.4c0-0.1,0-0.1,0-0.2c0,0,0-0.1,0-0.2c0-0.1,0-0.2,0.1-0.4
		c0.1-0.3,0.2-0.7,0.5-1.1c0.2-0.4,0.5-0.7,0.7-0.9C1204.4,679.1,1204.6,679,1204.6,679z"/>
	<path d="M1239,683.5c0,0-0.1,0.2-0.3,0.4c-0.1,0.3-0.3,0.6-0.4,1c-0.1,0.4-0.1,0.7-0.1,1c0,0.1,0,0.2,0,0.3c0,0.1,0,0.1,0,0.1l0,0
		c0.1,0.3-0.1,0.5-0.4,0.6c-0.3,0.1-0.6-0.1-0.6-0.4c0-0.1,0-0.1,0-0.2c0,0,0-0.1,0-0.2c0-0.1,0-0.2,0.1-0.4
		c0.1-0.3,0.2-0.7,0.5-1.1c0.2-0.4,0.5-0.7,0.7-0.9C1238.8,683.6,1239,683.5,1239,683.5z"/>
	<path d="M1242.1,683.5c0,0-0.1,0.2-0.3,0.4c-0.1,0.3-0.3,0.6-0.4,1c-0.1,0.4-0.1,0.7-0.1,1c0,0.1,0,0.2,0,0.3c0,0.1,0,0.1,0,0.1
		l0,0c0.1,0.3-0.1,0.5-0.4,0.6c-0.3,0.1-0.6-0.1-0.6-0.4c0-0.1,0-0.1,0-0.2c0,0,0-0.1,0-0.2c0-0.1,0-0.2,0.1-0.4
		c0.1-0.3,0.2-0.7,0.5-1.1c0.2-0.4,0.5-0.7,0.7-0.9C1241.9,683.6,1242.1,683.5,1242.1,683.5z"/>
	<path d="M1258.7,675.9c0,0-0.1,0.1-0.3,0.4c-0.2,0.2-0.4,0.6-0.5,1c-0.1,0.4-0.2,0.7-0.2,1c0,0.1,0,0.2,0,0.3c0,0.1,0,0.1,0,0.1
		l0,0c0,0.3-0.2,0.5-0.5,0.5c-0.3,0-0.6-0.2-0.6-0.5c0-0.1,0-0.1,0-0.2c0,0,0-0.1,0-0.2c0-0.1,0.1-0.2,0.1-0.4
		c0.1-0.3,0.3-0.7,0.6-1.1c0.3-0.3,0.6-0.6,0.8-0.8C1258.5,676,1258.7,675.9,1258.7,675.9z"/>
	<path d="M1262.6,676.2c0,0-0.1,0.1-0.3,0.4c-0.2,0.2-0.4,0.6-0.5,1c-0.1,0.4-0.2,0.7-0.2,1c0,0.1,0,0.2,0,0.3c0,0.1,0,0.1,0,0.1
		l0,0c0,0.3-0.2,0.5-0.5,0.5c-0.3,0-0.6-0.2-0.6-0.5c0-0.1,0-0.1,0-0.2c0,0,0-0.1,0-0.2c0-0.1,0.1-0.2,0.1-0.4
		c0.1-0.3,0.3-0.7,0.6-1.1c0.3-0.3,0.6-0.6,0.8-0.8C1262.4,676.3,1262.6,676.2,1262.6,676.2z"/>
	<path d="M1312.3,680.6c0,0-0.1,0.2-0.2,0.5c-0.1,0.3-0.2,0.7-0.2,1c0,0.4,0,0.7,0.1,1c0,0.1,0.1,0.2,0.1,0.3c0,0.1,0,0.1,0,0.1l0,0
		c0.1,0.3-0.1,0.6-0.4,0.6c-0.3,0.1-0.6-0.1-0.7-0.3c0-0.1,0-0.1,0-0.2c0,0,0-0.1,0-0.2c0-0.1,0-0.2,0-0.4c0-0.3,0.1-0.8,0.3-1.2
		c0.2-0.4,0.4-0.8,0.6-1C1312.1,680.8,1312.3,680.6,1312.3,680.6z"/>
	<path d="M1315.4,680.3c0,0-0.1,0.2-0.2,0.5c-0.1,0.3-0.2,0.7-0.2,1c0,0.4,0,0.7,0.1,1c0,0.1,0.1,0.2,0.1,0.3c0,0.1,0,0.1,0,0.1l0,0
		c0.1,0.3-0.1,0.6-0.4,0.6c-0.3,0.1-0.6-0.1-0.7-0.3c0-0.1,0-0.1,0-0.2c0,0,0-0.1,0-0.2c0-0.1,0-0.2,0-0.4c0-0.3,0.1-0.8,0.3-1.2
		c0.2-0.4,0.4-0.8,0.6-1C1315.2,680.4,1315.4,680.3,1315.4,680.3z"/>
</g>
<g>
	<rect x="556" y="412" class="st34" width="762" height="197"/>
	<path class="st35" d="M608.7,488l-5.2-17h-26l-5.2,17H556l25.2-71.7h18.5L625,488H608.7z M599.9,458.3c-4.8-15.4-7.5-24.1-8.1-26.1
		c-0.6-2-1-3.6-1.3-4.8c-1.1,4.2-4.2,14.5-9.2,30.9H599.9z"/>
	<path class="st35" d="M693.2,451.6c0,11.8-3.3,20.8-10,27s-16.3,9.4-29,9.4H634v-71.4h22.4c11.7,0,20.7,3.1,27.1,9.2
		S693.2,440.6,693.2,451.6z M677.5,452c0-15.3-6.8-23-20.3-23h-8.1v46.5h6.5C670.2,475.5,677.5,467.7,677.5,452z"/>
	<path class="st35" d="M772.8,452.2c0,11.8-2.9,20.9-8.8,27.2s-14.3,9.5-25.2,9.5s-19.3-3.2-25.2-9.5s-8.8-15.5-8.8-27.3
		c0-11.9,2.9-21,8.8-27.2c5.9-6.3,14.3-9.4,25.3-9.4c11,0,19.4,3.2,25.2,9.5C769.9,431.3,772.8,440.4,772.8,452.2z M720.7,452.2
		c0,8,1.5,14,4.5,18c3,4,7.6,6.1,13.6,6.1c12.1,0,18.1-8,18.1-24.1c0-16.1-6-24.1-18-24.1c-6,0-10.6,2-13.6,6.1
		C722.2,438.2,720.7,444.2,720.7,452.2z"/>
	<path class="st35" d="M836.9,438.9c0,7.7-2.4,13.6-7.2,17.6c-4.8,4.1-11.6,6.1-20.5,6.1h-6.5V488h-15.1v-71.4h22.8
		c8.7,0,15.2,1.9,19.8,5.6C834.7,425.9,836.9,431.5,836.9,438.9z M802.7,450.2h5c4.7,0,8.1-0.9,10.4-2.8c2.3-1.8,3.5-4.5,3.5-8
		c0-3.5-1-6.2-2.9-7.9c-1.9-1.7-5-2.5-9.1-2.5h-6.9V450.2z"/>
	<path class="st35" d="M877.9,488h-15.1v-58.8h-19.4v-12.6h53.9v12.6h-19.4V488z"/>
	<path class="st35" d="M952,488l-5.2-17h-26l-5.2,17h-16.3l25.2-71.7H943l25.3,71.7H952z M943.2,458.3c-4.8-15.4-7.5-24.1-8.1-26.1
		c-0.6-2-1-3.6-1.3-4.8c-1.1,4.2-4.2,14.5-9.2,30.9H943.2z"/>
	<path class="st35" d="M1061.4,416.6v46.2c0,5.3-1.2,9.9-3.5,13.9c-2.4,4-5.8,7-10.2,9.1c-4.5,2.1-9.7,3.2-15.8,3.2
		c-9.2,0-16.3-2.4-21.4-7.1c-5.1-4.7-7.6-11.1-7.6-19.3v-46h15.1v43.7c0,5.5,1.1,9.5,3.3,12.1c2.2,2.6,5.9,3.9,11,3.9
		c4.9,0,8.5-1.3,10.8-3.9c2.2-2.6,3.3-6.6,3.3-12.2v-43.6H1061.4z"/>
	<path class="st35" d="M1142.2,488h-19.2l-31.1-54h-0.4c0.6,9.5,0.9,16.3,0.9,20.4V488h-13.5v-71.4h19.1l31,53.5h0.3
		c-0.5-9.3-0.7-15.8-0.7-19.7v-33.8h13.6V488z"/>
	<path class="st35" d="M1203.9,488l-5.2-17h-26l-5.2,17h-16.3l25.2-71.7h18.5l25.3,71.7H1203.9z M1195.1,458.3
		c-4.8-15.4-7.5-24.1-8.1-26.1c-0.6-2-1-3.6-1.3-4.8c-1.1,4.2-4.2,14.5-9.2,30.9H1195.1z"/>
	<path class="st35" d="M699.1,608l-17.2-56h-0.4c0.6,11.4,0.9,19,0.9,22.8V608h-13.5v-71.4h20.6l16.9,54.6h0.3l17.9-54.6h20.6V608
		h-14.1v-33.8c0-1.6,0-3.4,0.1-5.5c0-2.1,0.3-7.6,0.7-16.6h-0.4L713,608H699.1z"/>
	<path class="st35" d="M806.9,608l-5.2-17h-26l-5.2,17h-16.3l25.2-71.7h18.5l25.3,71.7H806.9z M798.1,578.3
		c-4.8-15.4-7.5-24.1-8.1-26.1c-0.6-2-1-3.6-1.3-4.8c-1.1,4.2-4.2,14.5-9.2,30.9H798.1z"/>
	<path class="st35" d="M874.3,588.2c0,6.4-2.3,11.5-7,15.2S856.3,609,848,609c-7.6,0-14.4-1.4-20.2-4.3v-14.1
		c4.8,2.1,8.9,3.7,12.2,4.5c3.3,0.9,6.4,1.3,9.2,1.3c3.3,0,5.9-0.6,7.6-1.9c1.8-1.3,2.7-3.2,2.7-5.7c0-1.4-0.4-2.6-1.2-3.7
		c-0.8-1.1-1.9-2.1-3.4-3.1c-1.5-1-4.6-2.6-9.3-4.8c-4.4-2.1-7.6-4-9.8-5.9c-2.2-1.9-3.9-4.1-5.2-6.6c-1.3-2.5-2-5.4-2-8.8
		c0-6.3,2.1-11.3,6.4-14.9c4.3-3.6,10.2-5.4,17.7-5.4c3.7,0,7.3,0.4,10.6,1.3s6.9,2.1,10.6,3.7l-4.9,11.8c-3.8-1.6-7-2.7-9.4-3.3
		c-2.5-0.6-4.9-0.9-7.3-0.9c-2.9,0-5.1,0.7-6.6,2c-1.5,1.3-2.3,3.1-2.3,5.2c0,1.3,0.3,2.5,0.9,3.5c0.6,1,1.6,2,3,2.9
		c1.4,0.9,4.5,2.6,9.6,5c6.7,3.2,11.2,6.4,13.7,9.6C873.1,579.6,874.3,583.5,874.3,588.2z"/>
	<path class="st35" d="M917.6,548.2c-5.7,0-10.1,2.1-13.2,6.4c-3.1,4.3-4.7,10.2-4.7,17.9c0,15.9,6,23.9,17.9,23.9
		c5,0,11.1-1.3,18.2-3.8v12.7c-5.9,2.4-12.4,3.7-19.6,3.7c-10.4,0-18.3-3.1-23.8-9.4c-5.5-6.3-8.3-15.3-8.3-27.1
		c0-7.4,1.4-13.9,4.1-19.5c2.7-5.6,6.6-9.9,11.6-12.8c5.1-3,11-4.5,17.8-4.5c6.9,0,13.9,1.7,20.9,5l-4.9,12.3
		c-2.7-1.3-5.4-2.4-8.1-3.3C922.8,548.7,920.2,548.2,917.6,548.2z"/>
	<path class="st35" d="M1015.8,572.2c0,11.8-2.9,20.9-8.8,27.2s-14.3,9.5-25.2,9.5s-19.3-3.2-25.2-9.5s-8.8-15.5-8.8-27.3
		c0-11.9,2.9-21,8.8-27.2c5.9-6.3,14.3-9.4,25.3-9.4c11,0,19.4,3.2,25.2,9.5C1012.9,551.3,1015.8,560.4,1015.8,572.2z M963.7,572.2
		c0,8,1.5,14,4.5,18c3,4,7.6,6.1,13.6,6.1c12.1,0,18.1-8,18.1-24.1c0-16.1-6-24.1-18-24.1c-6,0-10.6,2-13.6,6.1
		C965.2,558.2,963.7,564.2,963.7,572.2z"/>
	<path class="st35" d="M1058.1,608H1043v-58.8h-19.4v-12.6h53.9v12.6h-19.4V608z"/>
	<path class="st35" d="M1132.2,608l-5.2-17h-26l-5.2,17h-16.3l25.2-71.7h18.5l25.3,71.7H1132.2z M1123.4,578.3
		c-4.8-15.4-7.5-24.1-8.1-26.1c-0.6-2-1-3.6-1.3-4.8c-1.1,4.2-4.2,14.5-9.2,30.9H1123.4z"/>
</g>
<g>
	<rect x="688" y="649" class="st34" width="490" height="58"/>
	<path d="M702.2,654.8c-2.1,0-3.6,0.8-4.8,2.3s-1.7,3.7-1.7,6.4c0,5.7,2.2,8.6,6.5,8.6c1.8,0,4-0.5,6.6-1.4v4.6
		c-2.1,0.9-4.5,1.3-7.1,1.3c-3.7,0-6.6-1.1-8.6-3.4s-3-5.5-3-9.8c0-2.7,0.5-5,1.5-7s2.4-3.6,4.2-4.6s4-1.6,6.4-1.6
		c2.5,0,5,0.6,7.5,1.8l-1.8,4.4c-1-0.5-1.9-0.9-2.9-1.2S703.1,654.8,702.2,654.8z"/>
	<path d="M737.5,663.5c0,4.3-1.1,7.5-3.2,9.8s-5.1,3.4-9.1,3.4s-7-1.1-9.1-3.4s-3.2-5.6-3.2-9.8s1.1-7.5,3.2-9.8s5.1-3.4,9.1-3.4
		s7,1.1,9.1,3.4S737.5,659.2,737.5,663.5z M718.7,663.5c0,2.9,0.5,5,1.6,6.5s2.7,2.2,4.9,2.2c4.3,0,6.5-2.9,6.5-8.7
		c0-5.8-2.2-8.7-6.5-8.7c-2.2,0-3.8,0.7-4.9,2.2S718.7,660.6,718.7,663.5z"/>
	<path d="M765.6,676.4h-6.9l-11.2-19.4h-0.2c0.2,3.4,0.3,5.9,0.3,7.3v12.1h-4.9v-25.7h6.9l11.2,19.2h0.1c-0.2-3.3-0.3-5.7-0.3-7.1
		v-12.2h4.9V676.4z"/>
	<path d="M795.4,663.5c0,4.3-1.1,7.5-3.2,9.8s-5.1,3.4-9.1,3.4s-7-1.1-9.1-3.4s-3.2-5.6-3.2-9.8s1.1-7.5,3.2-9.8s5.1-3.4,9.1-3.4
		s7,1.1,9.1,3.4S795.4,659.2,795.4,663.5z M776.7,663.5c0,2.9,0.5,5,1.6,6.5s2.7,2.2,4.9,2.2c4.3,0,6.5-2.9,6.5-8.7
		c0-5.8-2.2-8.7-6.5-8.7c-2.2,0-3.8,0.7-4.9,2.2S776.7,660.6,776.7,663.5z"/>
	<path d="M811.7,654.8c-2.1,0-3.6,0.8-4.8,2.3s-1.7,3.7-1.7,6.4c0,5.7,2.2,8.6,6.5,8.6c1.8,0,4-0.5,6.6-1.4v4.6
		c-2.1,0.9-4.5,1.3-7.1,1.3c-3.7,0-6.6-1.1-8.6-3.4s-3-5.5-3-9.8c0-2.7,0.5-5,1.5-7s2.4-3.6,4.2-4.6s4-1.6,6.4-1.6
		c2.5,0,5,0.6,7.5,1.8l-1.8,4.4c-1-0.5-1.9-0.9-2.9-1.2S812.6,654.8,811.7,654.8z"/>
	<path d="M838.5,676.4h-14.8v-25.7h14.8v4.5h-9.4v5.6h8.7v4.5h-8.7v6.6h9.4V676.4z"/>
	<path d="M874.1,650.7v16.6c0,1.9-0.4,3.6-1.3,5s-2.1,2.5-3.7,3.3s-3.5,1.1-5.7,1.1c-3.3,0-5.9-0.8-7.7-2.5s-2.7-4-2.7-7v-16.6h5.4
		v15.7c0,2,0.4,3.4,1.2,4.4s2.1,1.4,4,1.4c1.8,0,3.1-0.5,3.9-1.4s1.2-2.4,1.2-4.4v-15.7H874.1z"/>
	<path d="M903.2,676.4h-6.9l-11.2-19.4h-0.2c0.2,3.4,0.3,5.9,0.3,7.3v12.1h-4.9v-25.7h6.9l11.2,19.2h0.1c-0.2-3.3-0.3-5.7-0.3-7.1
		v-12.2h4.9V676.4z"/>
	<path d="M941.8,676.4h-6.9l-11.2-19.4h-0.2c0.2,3.4,0.3,5.9,0.3,7.3v12.1H919v-25.7h6.9l11.2,19.2h0.1c-0.2-3.3-0.3-5.7-0.3-7.1
		v-12.2h4.9V676.4z"/>
	<path d="M969.2,650.7v16.6c0,1.9-0.4,3.6-1.3,5s-2.1,2.5-3.7,3.3s-3.5,1.1-5.7,1.1c-3.3,0-5.9-0.8-7.7-2.5s-2.7-4-2.7-7v-16.6h5.4
		v15.7c0,2,0.4,3.4,1.2,4.4s2.1,1.4,4,1.4c1.8,0,3.1-0.5,3.9-1.4s1.2-2.4,1.2-4.4v-15.7H969.2z"/>
	<path d="M990.3,676.4h-14.8v-25.7h14.8v4.5H981v5.6h8.7v4.5H981v6.6h9.4V676.4z"/>
	<path d="M1010.3,650.7h5.5l-8.7,25.7h-5.9l-8.7-25.7h5.5l4.8,15.3c0.3,0.9,0.5,2,0.8,3.2s0.5,2,0.5,2.5c0.1-1.1,0.6-3,1.3-5.7
		L1010.3,650.7z"/>
	<path d="M1042.4,663.5c0,4.3-1.1,7.5-3.2,9.8s-5.1,3.4-9.1,3.4s-7-1.1-9.1-3.4s-3.2-5.6-3.2-9.8s1.1-7.5,3.2-9.8s5.1-3.4,9.1-3.4
		s7,1.1,9.1,3.4S1042.4,659.2,1042.4,663.5z M1023.6,663.5c0,2.9,0.5,5,1.6,6.5s2.7,2.2,4.9,2.2c4.3,0,6.5-2.9,6.5-8.7
		c0-5.8-2.2-8.7-6.5-8.7c-2.2,0-3.8,0.7-4.9,2.2S1023.6,660.6,1023.6,663.5z"/>
	<path d="M1072.8,676.4l-1.9-6.1h-9.4l-1.9,6.1h-5.9l9.1-25.8h6.7l9.1,25.8H1072.8z M1069.6,665.7c-1.7-5.5-2.7-8.7-2.9-9.4
		s-0.4-1.3-0.5-1.7c-0.4,1.5-1.5,5.2-3.3,11.1H1069.6z"/>
	<path d="M1092.8,676.4l-6.2-20.2h-0.2c0.2,4.1,0.3,6.8,0.3,8.2v12h-4.9v-25.7h7.4l6.1,19.7h0.1l6.5-19.7h7.4v25.7h-5.1v-12.2
		c0-0.6,0-1.2,0-2s0.1-2.7,0.2-6h-0.2l-6.6,20.1H1092.8z"/>
	<path d="M1139.2,663.5c0,4.3-1.1,7.5-3.2,9.8s-5.1,3.4-9.1,3.4s-7-1.1-9.1-3.4s-3.2-5.6-3.2-9.8s1.1-7.5,3.2-9.8s5.1-3.4,9.1-3.4
		s7,1.1,9.1,3.4S1139.2,659.2,1139.2,663.5z M1120.4,663.5c0,2.9,0.5,5,1.6,6.5s2.7,2.2,4.9,2.2c4.3,0,6.5-2.9,6.5-8.7
		c0-5.8-2.2-8.7-6.5-8.7c-2.2,0-3.8,0.7-4.9,2.2S1120.4,660.6,1120.4,663.5z"/>
	<path d="M1150,666.5v9.9h-5.4v-25.7h7.5c3.5,0,6.1,0.6,7.8,1.9s2.5,3.2,2.5,5.8c0,1.5-0.4,2.9-1.2,4s-2,2.1-3.5,2.8
		c3.9,5.8,6.4,9.5,7.6,11.2h-6l-6.1-9.9H1150z M1150,662.1h1.8c1.7,0,3-0.3,3.8-0.9s1.2-1.5,1.2-2.7c0-1.2-0.4-2.1-1.3-2.6
		s-2.1-0.8-3.9-0.8h-1.7V662.1z"/>
</g>
<g>
</g>
<g>
</g>
<g>
</g>
<g>
</g>
<g>
</g>
<g>
</g>
<g>
</g>
<g>
</g>
<g>
</g>
<g>
</g>
<g>
</g>
<g>
</g>
<g>
</g>
<g>
</g>
<g>
</g>
</svg>
